<?xml version="1.0" encoding="UTF-8" standalone="no"?>
<svg
   xmlns:dc="http://purl.org/dc/elements/1.1/"
   xmlns:cc="http://creativecommons.org/ns#"
   xmlns:rdf="http://www.w3.org/1999/02/22-rdf-syntax-ns#"
   xmlns:svg="http://www.w3.org/2000/svg"
   xmlns="http://www.w3.org/2000/svg"
   viewBox="0 0 595.27557 841.88977"
   id="svg2"
   height="841.88977"
   width="595.27557"
   version="1.1">
  <metadata
     id="metadata12">
    <rdf:RDF>
      <cc:Work
         rdf:about="">
        <dc:format>image/svg+xml</dc:format>
        <dc:type
           rdf:resource="http://purl.org/dc/dcmitype/StillImage" />
      </cc:Work>
    </rdf:RDF>
  </metadata>
  <defs
     id="defs10" />
  <path
     id="path4"
     style="fill:#151616;fill-rule:evenodd;stroke:#151616;stroke-width:0.56690001;stroke-linecap:butt;stroke-linejoin:miter;stroke-dasharray:none"
     d="m 63.3099,235.1803 0,317.6244 471.3679,0 0,-317.6244 -471.3679,0 z" />
  <path
     id="path6"
     style="fill:#dd2b1c;fill-rule:evenodd"
     d="m 266.1355,469.2953 c 0,0 -0.0265,-6.1948 4.0504,-8.2068 4.077,-2.0119 8.2597,-3.2826 8.2597,-3.2826 l -2.0913,-0.1588 1.7604,-0.609 -1.5619,-0.278 1.5884,-0.45 -1.4957,-0.278 1.3633,-0.4368 -1.3236,-0.0132 1.3633,-0.6089 -1.3633,0.1456 1.0589,-0.7281 -1.1648,0.1059 0.7147,-0.7016 -0.8736,0.1457 0.7413,-0.7546 -1.9193,0.1324 1.178,-0.5692 -1.8134,-0.0926 0.9266,-0.4501 -2.4223,-0.0132 0.7147,-0.2648 c 0,0 -11.3042,-1.059 -7.6905,17.3667 z m -57.1429,-23.8262 c 0,0 -1.3238,-2.5416 -1.0591,-8.3658 0.2648,-5.8242 0.9531,-7.8891 0.9531,-7.8891 0,0 0.5554,-0.5824 1.4555,-0.9 0.9001,-0.3177 40.5308,-12.7603 40.5308,-12.7603 0,0 3.7063,-1.2178 4.9505,-1.509 1.2442,-0.2912 1.7737,-0.4501 2.4091,-0.6883 0.6354,-0.2382 1.0854,-0.7148 1.1913,-1.0854 0.1059,-0.3706 0.1059,-0.503 0.1059,-0.503 0,0 1.3237,-0.0529 1.7737,1.5355 0.45,1.5884 1.0588,3.2827 2.1178,5.4006 1.059,2.1178 2.3033,3.1238 2.0915,4.1033 -0.2118,0.9795 -6.6978,5.2416 -20.7287,8.4714 -14.0309,3.2297 -33.833,9.1597 -35.7914,14.1901 z m 7.9616,5.9155 c 1.3876,-0.277 2.7337,-0.568 2.7337,-0.568 l -6.8072,-0.2157 c -0.0626,-0.0286 -0.1228,-0.0578 -0.1802,-0.0875 l 7.2521,-0.8881 -7.439,-0.2383 8.4979,-0.953 -8.0743,-0.4236 7.7037,-0.9265 -6.6448,-0.4501 6.8301,-0.3176 -7.7567,-0.6883 8.0744,-0.6089 -5.3741,-0.6354 5.8771,-0.5559 -4.5799,-0.503 5.1888,-0.4766 -3.7592,-0.3177 4.5004,-0.5824 -3.0444,-0.1853 3.7857,-0.5824 -2.7268,-0.1324 3.9181,-0.7677 -3.1196,0 c 7.8686,-3.0002 21.0685,-6.0888 21.0685,-6.0888 0,0 0.3177,-0.5824 20.1727,-0.5824 19.855,0 24.0908,2.965 25.2556,4.1299 1.1648,1.1648 1.0589,2.8061 -0.7412,7.6243 -1.8001,4.8181 -3.9181,7.9949 -3.9181,7.9949 -3.5474,-6.4066 -13.7132,-3.8122 -13.7132,-3.8122 0,0 -41.5632,1.8532 -50.2465,1.9061 -1.0359,0.006 -1.9407,-0.0179 -2.7336,-0.0674 z m 14.2318,-35.9196 5.2854,0.5653 c 0,0 -2.1179,-1.2442 -1.9326,-1.2442 0.1853,0 2.6209,0.0265 2.6209,0.0265 l -2.1444,-1.0854 2.568,0 -1.1648,-0.7412 1.8001,0 -0.5294,-0.8207 1.959,0.5824 -1.3766,-1.1913 3.0709,0.3971 -1.3766,-0.7412 2.6208,0.1059 -2.1708,-0.6619 3.0974,0 -1.4031,-0.6883 2.6738,0.0794 -1.1383,-0.7148 2.6473,0.4236 -0.7942,-0.3971 2.5679,0.0794 1.7737,-0.0794 -1.5619,-0.3707 2.3561,0.1059 -1.2533,-0.5603 c 0.6441,0.003 1.2168,0.0296 1.6505,0.0838 1.6943,0.2118 5.0828,0.7942 6.1152,1.9326 1.0325,1.1384 -2.0384,1.8796 -2.0384,1.8796 l -19.6432,5.8771 c 0,0 -3.2562,-0.6883 -4.1563,-2.4621 -0.0668,-0.1315 -0.1065,-0.258 -0.1231,-0.38 z m 94.1339,53.8303 c 0,0 0.0265,-6.1948 -4.0504,-8.2068 -4.077,-2.0119 -8.2598,-3.2826 -8.2598,-3.2826 l 2.0914,-0.1588 -1.7604,-0.609 1.5619,-0.278 -1.5884,-0.45 1.4957,-0.278 -1.3633,-0.4368 1.3236,-0.0132 -1.3634,-0.6089 1.3634,0.1456 -1.0589,-0.7281 1.1648,0.1059 -0.7147,-0.7016 0.8736,0.1457 -0.7413,-0.7546 1.9193,0.1324 -1.178,-0.5692 1.8134,-0.0926 -0.9266,-0.4501 2.4223,-0.0132 -0.7147,-0.2648 c 0,0 11.3041,-1.059 7.6905,17.3667 z m 57.1429,-23.8262 c 0,0 1.3238,-2.5416 1.059,-8.3658 -0.2647,-5.8242 -0.953,-7.8891 -0.953,-7.8891 0,0 -0.5554,-0.5824 -1.4555,-0.9 -0.9001,-0.3177 -40.5308,-12.7603 -40.5308,-12.7603 0,0 -3.7063,-1.2178 -4.9505,-1.509 -1.2443,-0.2912 -1.7737,-0.4501 -2.4091,-0.6883 -0.6354,-0.2382 -1.0854,-0.7148 -1.1913,-1.0854 -0.1059,-0.3706 -0.1059,-0.503 -0.1059,-0.503 0,0 -1.3237,-0.0529 -1.7737,1.5355 -0.45,1.5884 -1.0588,3.2827 -2.1178,5.4006 -1.059,2.1178 -2.3033,3.1238 -2.0915,4.1033 0.2118,0.9795 6.6978,5.2416 20.7287,8.4714 14.0309,3.2297 33.833,9.1597 35.7914,14.1901 z m -7.9616,5.9155 c -1.3876,-0.277 -2.7337,-0.568 -2.7337,-0.568 l 6.8072,-0.2157 c 0.0625,-0.0286 0.1228,-0.0578 0.1802,-0.0875 l -7.2521,-0.8881 7.439,-0.2383 -8.4979,-0.953 8.0743,-0.4236 -7.7037,-0.9265 6.6448,-0.4501 -6.8301,-0.3176 7.7567,-0.6883 -8.0744,-0.6089 5.3741,-0.6354 -5.8771,-0.5559 4.5799,-0.503 -5.1888,-0.4766 3.7592,-0.3177 -4.5004,-0.5824 3.0444,-0.1853 -3.7857,-0.5824 2.7268,-0.1324 -3.9181,-0.7677 3.1196,0 c -7.8686,-3.0002 -21.0685,-6.0888 -21.0685,-6.0888 0,0 -0.3177,-0.5824 -20.1727,-0.5824 -19.855,0 -24.0908,2.965 -25.2556,4.1299 -1.1648,1.1648 -1.0589,2.8061 0.7412,7.6243 1.8001,4.8181 3.9181,7.9949 3.9181,7.9949 3.5474,-6.4066 13.7132,-3.8122 13.7132,-3.8122 0,0 41.5632,1.8532 50.2465,1.9061 1.0359,0.006 1.9407,-0.0179 2.7336,-0.0674 z m -14.2318,-35.9196 -5.2854,0.5653 c 0,0 2.1179,-1.2442 1.9326,-1.2442 -0.1853,0 -2.6209,0.0265 -2.6209,0.0265 l 2.1444,-1.0854 -2.568,0 1.1648,-0.7412 -1.8001,0 0.5294,-0.8207 -1.959,0.5824 1.3766,-1.1913 -3.0709,0.3971 1.3766,-0.7412 -2.6208,0.1059 2.1708,-0.6619 -3.0974,0 1.4031,-0.6883 -2.6738,0.0794 1.1383,-0.7148 -2.6473,0.4236 0.7942,-0.3971 -2.5679,0.0794 -1.7737,-0.0794 1.5619,-0.3707 -2.3562,0.1059 1.2534,-0.5603 c -0.6441,0.003 -1.2168,0.0296 -1.6505,0.0838 -1.6943,0.2118 -5.0828,0.7942 -6.1153,1.9326 -1.0324,1.1384 2.0385,1.8796 2.0385,1.8796 l 19.6432,5.8771 c 0,0 3.2562,-0.6883 4.1563,-2.4621 0.0668,-0.1315 0.1065,-0.258 0.1231,-0.38 z m -63.5142,-43.3267 c 0.9694,0.0653 17.7106,-1.0589 42.9132,3.2828 25.2026,4.3416 43.2574,15.9899 44.687,19.5373 1.4295,3.5475 -0.7942,4.8711 -2.5944,5.9829 -1.8002,1.1119 -8.0479,6.5654 -9.848,8.8951 -1.8002,2.3298 -9.0541,6.2478 -9.0541,6.2478 0,0 1.1913,-2.0913 -0.1059,-3.8916 -1.2972,-1.8002 -7.0948,-4.3416 -7.0948,-4.3416 0,0 -7.5714,-2.8591 -22.82,-6.5653 -10.9866,-2.6703 -28.2933,-3.0319 -37.1105,-3.0254 -8.8171,-0.006 -26.1239,0.3551 -37.1105,3.0254 -15.2486,3.7062 -22.82,6.5653 -22.82,6.5653 0,0 -5.7976,2.5414 -7.0948,4.3416 -1.2972,1.8003 -0.1059,3.8916 -0.1059,3.8916 0,0 -7.2539,-3.918 -9.0541,-6.2478 -1.8001,-2.3297 -8.0478,-7.7832 -9.848,-8.8951 -1.8002,-1.1118 -4.0239,-2.4354 -2.5944,-5.9829 1.4296,-3.5474 19.4844,-15.1957 44.687,-19.5373 14.4161,-2.4835 26.3872,-3.1477 33.9956,-3.2615 l 4.9584,-7e-4 c 1.9626,0.0319 5.0448,-0.0859 6.0142,-0.0206 z m 76.7878,51.512 c -5.9266,-1.7983 -13.6492,-4.124 -13.6492,-4.124 0,0 2.3296,-0.3176 4.7651,-1.9589 2.4356,-1.6414 7.2008,-4.3417 10.1658,-7.7303 0.8869,-1.0137 2.1671,-2.16 3.567,-3.3255 -0.1517,1.4581 -0.4422,3.5976 -0.9652,5.505 -0.7662,2.7944 -3.1817,9.6543 -3.8835,11.6337 z m 16.2996,-3.7711 c 0,0 3.3357,0.4765 3.8122,2.965 0.4765,2.4884 -3.8917,5.2152 -3.8917,5.2152 0,0 1.2707,-3.4415 0.503,-4.8446 -0.7677,-1.4031 -2.462,-2.7267 -2.462,-2.7267 0,0 1.0855,0.0264 1.7473,0.2382 0.6618,0.2118 0.6618,0.2118 0.6618,0.2118 0,0 0,-0.6618 -0.3706,-1.0589 z m -5.2814,1.0984 c 0,0 2.6606,2.1841 2.9783,4.0373 0.3177,1.8531 -0.3441,3.8651 -0.3441,3.8651 0,0 -1.2708,-2.2766 -1.9062,-2.7267 -0.6354,-0.4501 -1.403,-1.3502 -1.5619,-2.0121 -0.1589,-0.6618 -0.0265,-3.1502 -0.0265,-3.1502 0,0 0.3573,0.8205 0.675,1.4162 0.3177,0.5957 0.5692,0.7148 0.5692,0.7148 0,0 -0.503,-1.3369 -0.3838,-2.1444 z m 15.3016,-10.5498 c 0,0 0.503,1.8001 -0.8737,3.5474 -1.3766,1.7472 -7.8096,3.5474 -7.8096,3.5474 l 2.3297,-1.3501 -2.9121,0.8206 c 0,0 2.6474,-1.403 3.3622,-2.5943 0.7147,-1.1913 0.6089,-2.6209 1.6413,-2.6474 1.0324,-0.0265 3.1238,0.5824 4.2622,-1.3236 z m -8.6039,-1.1913 c 0,0 -0.0794,3.7063 -1.3766,5.5594 -1.2971,1.8531 -2.7796,2.7796 -2.7796,2.7796 0,0 0.2383,-0.6619 0.3177,-1.2707 0.0794,-0.6088 0.0794,-0.7147 0.0794,-0.7147 0,0 -0.8736,0.7148 -1.2972,1.2707 -0.4236,0.5559 -0.5825,0.8206 -0.5825,0.8206 0,0 -0.5559,-2.6208 0.9796,-4.5798 1.5354,-1.9591 4.6592,-3.8651 4.6592,-3.8651 z m -10.3775,3.7857 c 0,0 0.053,0.7942 -0.5559,1.9061 -0.6089,1.1118 -1.3501,1.6677 -1.1648,2.8855 0.1853,1.2178 0.8471,2.1179 0.8471,2.1179 0,0 0.0795,-0.9001 0.2648,-1.4296 0.1853,-0.5295 0.1853,-0.5295 0.1853,-0.5295 l 0.1323,1.6944 c 0,0 1.7473,-2.0386 1.5355,-3.9446 -0.2118,-1.906 -1.2443,-2.7002 -1.2443,-2.7002 z m -10.1128,-44.29 c 0,0 1.1913,-2.0649 0.1853,-5.5593 -1.006,-3.4945 -4.6329,-4.8446 -4.6329,-4.8446 0,0 0.7413,2.0648 0.3442,3.4679 -0.3971,1.4032 -0.4237,2.7004 0.1323,3.4416 0.556,0.7412 1.8531,1.7737 1.8531,1.7737 0,0 -0.397,-0.9266 -0.397,-1.1913 0,-0.2647 0,-0.3177 0,-0.3177 0,0 1.2971,1.1383 1.4825,1.6413 0.1853,0.503 0.1853,0.6354 0.1853,0.6354 0,0 0.5824,-1.1649 0.6354,-1.6149 0.0529,-0.45 0.0529,-0.5029 0.0529,-0.5029 0,0 0.331,2.6891 0.1589,3.0708 z m 6.5653,7.7567 c 0,0 0.4765,-2.3826 1.1913,-4.2887 0.7148,-1.9061 1.1649,-4.7123 0.053,-6.1419 -1.1119,-1.4295 -2.9916,-4.4474 -2.9916,-4.4474 0,0 -0.3971,2.2238 -0.953,4.2092 -0.5559,1.9855 -0.556,5.3476 0.2647,7.2007 0.8207,1.8532 1.3502,2.4621 1.3502,2.4621 0,0 -0.0795,-1.5885 0.1323,-2.1709 0.2118,-0.5824 0.2118,-0.5824 0.2118,-0.5824 0,0 -0.3441,2.7533 0.7413,3.7593 z m 5.6919,-5.7976 c 0,0 -3.7857,3.5737 -4.1828,4.5268 -0.3971,0.9531 -0.7149,1.8797 -0.5295,2.9651 0.1853,1.0854 0.6089,3.0973 0.6089,3.0973 0,0 0.2647,-2.0649 0.6883,-2.7267 0.4236,-0.6618 0.7942,-1.006 0.7942,-1.006 0,0 -0.9001,2.8326 -1.0589,4.1298 -0.1588,1.2973 0.2912,2.3827 0.2912,2.3827 0,0 0.2117,-1.3767 0.953,-2.5945 0.7413,-1.2177 3.4416,-2.8061 2.9121,-4.8445 -0.5295,-2.0385 -0.7413,-4.1564 -0.4765,-5.93 z m -7.6243,8.4712 c 0,0 -3.9446,-5.9035 -7.545,-6.7242 -3.6003,-0.8208 -4.474,1.1913 -4.474,1.1913 0,0 1.9591,-0.1323 2.4356,1.1648 0.4765,1.2971 0.6088,2.912 2.7267,3.0973 2.1179,0.1853 2.9915,0.2912 3.3887,0.6089 0.3971,0.3177 -0.8208,-1.1384 -0.8208,-1.1384 0,0 2.8062,1.615 3.4151,2.2768 0.6089,0.6618 0.7413,0.7942 0.7413,0.7942 l -2.6208,-3.1768 c 0,0 1.7207,1.1118 2.7532,1.9061 z m -162.3514,27.3379 c 1.4051,1.1694 2.6908,2.3198 3.5806,3.3367 2.965,3.3886 7.7302,6.0889 10.1658,7.7303 2.4355,1.6413 4.7651,1.9589 4.7651,1.9589 0,0 -7.7322,2.3286 -13.6603,4.1274 -0.7004,-1.975 -3.118,-8.8411 -3.8847,-11.6371 -0.5244,-1.9123 -0.815,-4.0579 -0.9665,-5.5162 z m -11.4497,13.3788 c 0,0 -3.3356,0.4765 -3.8121,2.965 -0.4765,2.4884 3.8916,5.2152 3.8916,5.2152 0,0 -1.2707,-3.4415 -0.503,-4.8446 0.7677,-1.4031 2.4621,-2.7267 2.4621,-2.7267 0,0 -1.0855,0.0264 -1.7473,0.2382 -0.6619,0.2118 -0.6619,0.2118 -0.6619,0.2118 0,0 0,-0.6618 0.3706,-1.0589 z m 5.2815,1.0984 c 0,0 -2.6606,2.1841 -2.9783,4.0373 -0.3177,1.8531 0.3441,3.8651 0.3441,3.8651 0,0 1.2707,-2.2766 1.9061,-2.7267 0.6354,-0.4501 1.4031,-1.3502 1.5619,-2.0121 0.1589,-0.6618 0.0265,-3.1502 0.0265,-3.1502 0,0 -0.3573,0.8205 -0.675,1.4162 -0.3177,0.5957 -0.5692,0.7148 -0.5692,0.7148 0,0 0.503,-1.3369 0.3839,-2.1444 z m -15.3016,-10.5498 c 0,0 -0.503,1.8001 0.8736,3.5474 1.3766,1.7472 7.8096,3.5474 7.8096,3.5474 l -2.3296,-1.3501 2.912,0.8206 c 0,0 -2.6474,-1.403 -3.3621,-2.5943 -0.7147,-1.1913 -0.6089,-2.6209 -1.6413,-2.6474 -1.0324,-0.0265 -3.1239,0.5824 -4.2622,-1.3236 z m 8.6038,-1.1913 c 0,0 0.0795,3.7063 1.3766,5.5594 1.2972,1.8531 2.7797,2.7796 2.7797,2.7796 0,0 -0.2383,-0.6619 -0.3177,-1.2707 -0.0794,-0.6088 -0.0794,-0.7147 -0.0794,-0.7147 0,0 0.8736,0.7148 1.2972,1.2707 0.4236,0.5559 0.5824,0.8206 0.5824,0.8206 0,0 0.5559,-2.6208 -0.9795,-4.5798 -1.5354,-1.9591 -4.6593,-3.8651 -4.6593,-3.8651 z m 10.3776,3.7857 c 0,0 -0.053,0.7942 0.5559,1.9061 0.6089,1.1118 1.3501,1.6677 1.1648,2.8855 -0.1853,1.2178 -0.8471,2.1179 -0.8471,2.1179 0,0 -0.0795,-0.9001 -0.2648,-1.4296 -0.1853,-0.5295 -0.1853,-0.5295 -0.1853,-0.5295 l -0.1323,1.6944 c 0,0 -1.7473,-2.0386 -1.5355,-3.9446 0.2118,-1.906 1.2443,-2.7002 1.2443,-2.7002 z m 10.1128,-44.29 c 0,0 -1.1913,-2.0649 -0.1853,-5.5593 1.006,-3.4945 4.6329,-4.8446 4.6329,-4.8446 0,0 -0.7413,2.0648 -0.3442,3.4679 0.3971,1.4032 0.4236,2.7004 -0.1323,3.4416 -0.556,0.7412 -1.8532,1.7737 -1.8532,1.7737 0,0 0.3971,-0.9266 0.3971,-1.1913 0,-0.2647 0,-0.3177 0,-0.3177 0,0 -1.2971,1.1383 -1.4825,1.6413 -0.1854,0.503 -0.1854,0.6354 -0.1854,0.6354 0,0 -0.5823,-1.1649 -0.6353,-1.6149 -0.053,-0.45 -0.053,-0.5029 -0.053,-0.5029 0,0 -0.331,2.6891 -0.1588,3.0708 z m -6.5653,7.7567 c 0,0 -0.4765,-2.3826 -1.1913,-4.2887 -0.7148,-1.9061 -1.1649,-4.7123 -0.053,-6.1419 1.1119,-1.4295 2.9915,-4.4474 2.9915,-4.4474 0,0 0.3971,2.2238 0.953,4.2092 0.556,1.9855 0.556,5.3476 -0.2647,7.2007 -0.8207,1.8532 -1.3501,2.4621 -1.3501,2.4621 0,0 0.0794,-1.5885 -0.1324,-2.1709 -0.2118,-0.5824 -0.2118,-0.5824 -0.2118,-0.5824 0,0 0.3442,2.7533 -0.7412,3.7593 z m -5.6919,-5.7976 c 0,0 3.7857,3.5737 4.1828,4.5268 0.3971,0.9531 0.7149,1.8797 0.5295,2.9651 -0.1854,1.0854 -0.6089,3.0973 -0.6089,3.0973 0,0 -0.2647,-2.0649 -0.6883,-2.7267 -0.4236,-0.6618 -0.7942,-1.006 -0.7942,-1.006 0,0 0.9001,2.8326 1.0589,4.1298 0.1588,1.2973 -0.2912,2.3827 -0.2912,2.3827 0,0 -0.2117,-1.3767 -0.953,-2.5945 -0.7413,-1.2177 -3.4416,-2.8061 -2.9121,-4.8445 0.5295,-2.0385 0.7413,-4.1564 0.4765,-5.93 z m 7.6243,8.4712 c 0,0 3.9446,-5.9035 7.545,-6.7242 3.6003,-0.8208 4.474,1.1913 4.474,1.1913 0,0 -1.9591,-0.1323 -2.4356,1.1648 -0.4765,1.2971 -0.6088,2.912 -2.7268,3.0973 -2.1179,0.1853 -2.9915,0.2912 -3.3886,0.6089 -0.3971,0.3177 0.8207,-1.1384 0.8207,-1.1384 0,0 -2.8061,1.615 -3.415,2.2768 -0.6089,0.6618 -0.7413,0.7942 -0.7413,0.7942 l 2.6208,-3.1768 c 0,0 -1.7207,1.1118 -2.7532,1.9061 z M 329.431,307.3509 c -8.4216,-8.9431 -20.4134,-14.5339 -33.7215,-14.5339 -13.255,0 -25.2033,5.547 -33.6197,14.4278 l 8.0736,0 c 14.878,-0.7412 19.1666,8.8951 19.1666,8.8951 0,0 3.3887,6.5654 1.059,14.878 -2.3298,8.3126 -11.9659,11.4366 -11.9659,11.4366 l 0,0.503 c 0,0 1.0854,0.6883 1.8267,1.3766 0.7413,0.6883 2.6208,3.7592 2.6208,3.7592 l 10.1129,16.9959 33.118,-56.3882 c 0,0 -3.0443,0.0265 -4.2621,-0.3441 -1.2178,-0.3706 -0.7677,-1.006 -0.7677,-1.006 l 8.3593,0 z m 5.4169,65.177 c -2.4203,-0.3655 -4.8068,-0.676 -7.1314,-0.9393 8.715,-8.3295 14.1378,-20.0269 14.1378,-32.9821 0,-8.1759 -2.1617,-15.8498 -5.9455,-22.4937 0.9327,-1.0818 2.7134,-3.0517 4.2633,-4.2173 4.7635,7.7906 7.5063,16.9329 7.5063,26.711 0,12.9893 -4.8427,24.8543 -12.8305,33.9214 z m 7.5311,1.3088 c -2.0264,-0.4012 -4.0492,-0.7594 -6.053,-1.0792 7.8722,-9.2095 12.6231,-21.1288 12.6231,-34.151 0,-10.0288 -2.8161,-19.4049 -7.7064,-27.3921 0.1286,-0.0634 0.2531,-0.1164 0.3722,-0.1571 1.8485,-0.6307 4.429,-0.7968 5.2916,-0.8361 4.7384,8.3972 7.4432,18.0771 7.4432,28.3853 0,13.2435 -4.4617,25.4509 -11.9707,35.2302 z m -99.3725,1.3353 c -2.6112,0.6361 -5.2021,1.3513 -7.7385,2.1561 -6.1057,1.9371 -11.0241,3.931 -14.9785,5.8515 0.1043,-0.2489 0.2163,-0.537 0.332,-0.8669 0.5295,-1.509 0.4765,-2.5678 0.4765,-2.5678 0,0 -0.3177,0.5559 -1.3766,1.4295 -1.0589,0.8736 -1.8531,0.9266 -4.1298,2.3031 -1.6783,1.0148 -1.9899,2.6479 -2.0378,3.4365 -0.2224,0.1422 -0.4396,0.2833 -0.6514,0.4233 0.3646,-1.6507 1.6675,-7.1423 3.4968,-10.2654 2.1708,-3.7062 6.6714,-9.2656 12.1779,-10.6422 5.5064,-1.3767 7.492,0.4235 7.492,2.3031 0,1.8796 -1.615,1.959 -1.615,1.959 0,0 0.1853,-0.3177 0.1853,-0.9001 0,-0.5824 -0.3971,-1.2972 -1.1913,-1.4295 -0.7942,-0.1323 -1.6942,0.3971 -1.8266,1.4825 -0.1324,1.0854 1.1648,1.959 1.1648,1.959 0,0 4.1034,1.6943 4.7123,-2.3826 0.6089,-4.0769 -3.2827,-4.474 -3.2827,-4.474 0,0 -7.7038,-1.1913 -14.534,5.2682 -6.0298,5.7026 -7.8708,15.819 -8.2195,18.1119 -0.352,0.2519 -0.6868,0.4991 -1.0049,0.7415 0.1532,-0.714 0.2739,-2.0072 -0.2134,-3.738 -0.7678,-2.7267 -5.2153,-5.0828 -6.2742,-6.2476 0,0 0.1059,3.1238 0.5559,4.6857 0.45,1.5619 2.9915,4.1299 3.3621,4.6329 0.3706,0.503 1.3237,1.1118 1.3237,1.1118 0,0 -0.8207,-1.2178 -1.0325,-1.6678 -0.2118,-0.45 0.5559,-0.0529 0.5559,-0.0529 l -0.1588,-1.0325 c 0,0 0.3971,0.4765 0.8207,1.1119 0.2734,0.4101 0.5578,1.0518 0.7251,1.4552 -4.3898,3.4192 -5.4573,5.7907 -5.4573,5.7907 0,0 -1.4296,2.2238 0.1059,4.3417 0.8958,1.2355 3.7738,3.4081 6.605,5.6765 0.2938,2.2186 0.9799,6.8305 2.0586,10.7984 1.0865,3.9967 2.0591,6.9979 2.5013,8.3162 -0.7065,0.215 -1.3629,0.4153 -1.9479,0.5942 -0.3366,-0.7263 -1.2972,-2.6357 -2.8037,-4.3305 -1.9062,-2.1444 -6.989,-2.3827 -6.989,-2.3827 0,0 -5.6918,-0.5295 -9.9276,0.3971 -4.2357,0.9266 -6.3006,6.5389 -6.3006,6.5389 0,0 0.0794,-0.3706 1.6678,-0.7412 1.5884,-0.3706 1.5884,-0.2118 4.0768,-0.2118 2.4885,0 3.1504,-3.3621 4.0505,-4.1298 0.9001,-0.7678 4.6594,-1.5091 9.2922,-0.3177 3.8643,0.9936 5.5733,4.3627 6.0341,5.4534 -0.8887,0.2731 -1.5132,0.4677 -1.7521,0.5474 -1.5884,0.5295 -5.4005,2.065 -5.4005,4.7652 0,2.7003 -0.3707,5.877 -0.3177,7.2537 0.0529,1.3766 -0.6354,4.1298 1.1119,8.3656 1.7472,4.2357 2.7532,6.4595 5.8771,7.0419 3.1238,0.5824 19.9608,-0.1061 31.0796,-0.4767 11.1188,-0.3706 22.7671,-1.006 22.7671,-1.006 0,0 -4.9769,3.812 -4.0239,15.2485 0,0 0.4766,5.8669 5.6124,9.6892 5.1358,3.8223 7.5184,3.1768 7.5184,3.1768 0,0 1.3237,-0.2118 1.3766,-0.8472 0.0529,-0.6354 0.9531,-1.2178 -1.1119,-3.0709 -2.0649,-1.8531 -6.4595,-2.3826 -6.4595,-8.0479 0,-5.6653 8.1538,-5.7182 8.1538,-5.7182 0,0 3.1239,0.0528 4.977,-2.1179 1.8531,-2.1708 1.6413,-4.0239 1.6413,-4.0239 0,0 3.8652,-5.1359 5.5595,-10.2187 1.6943,-5.0829 3.3886,-7.6243 -1.959,-10.907 -5.3476,-3.2827 -23.5083,-3.2827 -23.5083,-3.2827 l -11.8866,0.0794 10.1392,-3.8917 c 0,0 5.9829,-2.2236 5.0299,-5.7711 -0.953,-3.5474 -1.6414,-2.8063 -3.0709,-6.2477 -1.4295,-3.4415 -1.5354,-4.1828 -1.5354,-4.1828 0,0 -2.012,-2.012 -6.1153,-3.7328 -4.1034,-1.7207 -7.7038,-1.8266 -7.7038,-1.8266 0,0 15.4602,-4.0241 25.0965,-4.7124 0,0 2.912,-0.2118 4.1033,-0.3177 1.1914,-0.1059 1.6414,-0.1059 1.6414,-0.1059 0,0 8.8157,2.1443 15.434,2.1973 0.1244,10e-4 0.2457,3e-4 0.3655,-0.001 0.1199,0.001 0.2411,0.002 0.3655,0.001 6.6183,-0.053 15.4339,-2.1973 15.4339,-2.1973 0,0 0.4501,0 1.6415,0.1059 1.1913,0.1059 4.1033,0.3177 4.1033,0.3177 9.6363,0.6883 25.0965,4.7124 25.0965,4.7124 0,0 -3.6004,0.1059 -7.7038,1.8266 -4.1033,1.7208 -6.1153,3.7328 -6.1153,3.7328 0,0 -0.1059,0.7413 -1.5354,4.1828 -1.4295,3.4414 -2.1179,2.7003 -3.0709,6.2477 -0.9531,3.5475 5.0299,5.7711 5.0299,5.7711 l 10.1392,3.8917 -11.8866,-0.0794 c 0,0 -18.1607,0 -23.5083,3.2827 -5.3476,3.2827 -3.6533,5.8241 -1.959,10.907 1.6943,5.0828 5.5594,10.2187 5.5594,10.2187 0,0 -0.2118,1.8531 1.6414,4.0239 1.8531,2.1707 4.9769,2.1179 4.9769,2.1179 0,0 8.1539,0.0529 8.1539,5.7182 0,5.6653 -4.3946,6.1948 -6.4595,8.0479 -2.065,1.8531 -1.1649,2.4355 -1.1119,3.0709 0.0529,0.6354 1.3766,0.8472 1.3766,0.8472 0,0 2.3826,0.6455 7.5184,-3.1768 5.1358,-3.8223 5.6124,-9.6892 5.6124,-9.6892 0.953,-11.4365 -4.0239,-15.2485 -4.0239,-15.2485 0,0 11.6483,0.6354 22.7671,1.006 11.1188,0.3706 27.9558,1.0591 31.0796,0.4767 3.1239,-0.5824 4.1299,-2.8062 5.8771,-7.0419 1.7473,-4.2358 1.059,-6.989 1.1119,-8.3656 0.0529,-1.3767 -0.3177,-4.5534 -0.3177,-7.2537 0,-2.7002 -3.8121,-4.2357 -5.4005,-4.7652 -0.2399,-0.08 -0.8687,-0.2759 -1.7631,-0.5508 0.4629,-1.0942 2.1725,-4.4574 6.0328,-5.45 4.6328,-1.1914 8.3921,-0.4501 9.2922,0.3177 0.9001,0.7677 1.562,4.1298 4.0504,4.1298 2.4885,0 2.4885,-0.1588 4.0769,0.2118 1.5884,0.3706 1.6678,0.7412 1.6678,0.7412 0,0 -2.0649,-5.6123 -6.3007,-6.5389 -4.2357,-0.9266 -9.9275,-0.3971 -9.9275,-0.3971 0,0 -5.0829,0.2383 -6.989,2.3827 -1.5042,1.6922 -2.4642,3.5984 -2.8021,4.3271 -0.5853,-0.179 -1.2419,-0.3792 -1.9484,-0.5942 0.4427,-1.3201 1.4146,-4.3194 2.5002,-8.3128 1.0769,-3.9614 1.7625,-8.5645 2.0571,-10.7873 2.8357,-2.2725 5.7215,-4.4501 6.6188,-5.6876 1.5355,-2.1179 0.1059,-4.3417 0.1059,-4.3417 0,0 -1.0691,-2.3748 -5.4666,-5.798 0.1677,-0.4039 0.4504,-1.0403 0.7221,-1.4479 0.4236,-0.6354 0.8206,-1.1119 0.8206,-1.1119 l -0.1588,1.0325 c 0,0 0.7677,-0.3971 0.5559,0.0529 -0.2118,0.45 -1.0324,1.6678 -1.0324,1.6678 0,0 0.953,-0.6088 1.3236,-1.1118 0.3707,-0.503 2.9122,-3.071 3.3622,-4.6329 0.45,-1.5619 0.5559,-4.6857 0.5559,-4.6857 -1.0589,1.1648 -5.5064,3.5209 -6.2742,6.2476 -0.4848,1.7217 -0.3679,3.0105 -0.2159,3.7268 -0.3178,-0.242 -0.6523,-0.4888 -1.004,-0.7402 -0.3524,-2.3118 -2.1967,-12.4075 -8.218,-18.102 -6.8302,-6.4595 -14.534,-5.2682 -14.534,-5.2682 0,0 -3.8915,0.3971 -3.2826,4.474 0.6089,4.0769 4.7122,2.3826 4.7122,2.3826 0,0 1.2973,-0.8736 1.1649,-1.959 -0.1324,-1.0854 -1.0325,-1.6148 -1.8267,-1.4825 -0.7942,0.1323 -1.1913,0.8471 -1.1913,1.4295 0,0.5824 0.1853,0.9001 0.1853,0.9001 0,0 -1.6149,-0.0794 -1.6149,-1.959 0,-1.8796 1.9855,-3.6798 7.492,-2.3031 5.5065,1.3766 10.007,6.936 12.1779,10.6422 1.8259,3.1175 3.1273,8.5943 3.4947,10.2561 -0.2114,-0.1396 -0.4281,-0.2804 -0.6499,-0.422 -0.0495,-0.7918 -0.3647,-2.4173 -2.0372,-3.4285 -2.2767,-1.3765 -3.0709,-1.4295 -4.1298,-2.3031 -1.059,-0.8736 -1.3767,-1.4295 -1.3767,-1.4295 0,0 -0.053,1.0588 0.4765,2.5678 0.1147,0.3267 0.2255,0.6123 0.329,0.8595 -3.9517,-1.9183 -8.8653,-3.9095 -14.9631,-5.8441 -2.5468,-0.8081 -5.1486,-1.5252 -7.7708,-2.1633 7.3075,-10.3541 11.5989,-22.958 11.5989,-36.5583 0,-35.2419 -28.7907,-63.8111 -64.306,-63.8111 -35.5152,0 -64.306,28.5692 -64.306,63.8111 0,13.6033 4.2926,26.2101 11.603,36.5655 z m 5.1172,-1.1437 c -0.3057,0.0626 -0.6115,0.126 -0.9172,0.1906 -7.4338,-9.9527 -11.8314,-22.2726 -11.8314,-35.6124 0,-33.0653 27.0126,-59.8701 60.3344,-59.8701 33.3219,0 60.3345,26.8048 60.3345,59.8701 0,13.3373 -4.3979,25.6536 -11.8293,35.6053 -0.3035,-0.064 -0.607,-0.1269 -0.9105,-0.1889 7.4675,-9.8655 11.8927,-22.1281 11.8927,-35.4164 0,-32.6011 -26.6334,-59.0295 -59.4874,-59.0295 -21.116,0 -39.6608,10.9184 -50.2176,27.3753 l 0.7861,0.3447 c 10.4182,-16.1626 28.6621,-26.8793 49.4315,-26.8793 21.3204,0 39.9818,11.2915 50.246,28.1758 l -0.003,10e-5 0.005,0.002 2e-4,5e-4 -0.2295,0 c -0.1912,0.001 -0.4167,0.002 -0.6816,0 l -0.003,0 -4e-4,0 -10e-4,0 -0.002,0 -0.003,-10e-5 -0.003,0 -0.004,-1e-4 c -0.3955,-0.003 -0.8774,-0.01 -1.4611,-0.0234 l -0.4596,-0.008 -0.1485,-5e-4 c -0.7448,0.0117 -1.5415,0.2318 -2.5109,0.6941 l -2.019,1.14 c -0.3554,0.224 -0.7314,0.47 -1.131,0.7389 -0.8122,0.5465 -1.7512,1.5583 -2.6687,2.7084 l -0.0301,0.1075 -0.025,-0.0381 c -2.1326,2.6885 -4.1329,6.0908 -4.1329,6.0908 l -29.2921,50.1629 -0.3777,0.003 0,-10e-5 -11.3498,-0.006 c -0.1552,-3e-4 -0.3123,-5e-4 -0.4745,-3e-4 l -0.0615,0 -7e-4,2e-4 c -1.1949,0.001 -2.5809,0.0136 -4.1259,0.0448 -1.5073,-2.6952 -11.103,-19.7584 -14.4654,-23.4131 -3.6533,-3.9709 -6.8565,-3.6003 -6.8565,-3.6003 0,0 -2.7267,0.3706 -2.7267,-0.6089 0,-0.9796 1.2177,-0.9002 1.2177,-0.9002 0,0 2.3032,0 3.6004,0 1.2972,0 4.2093,-0.6618 4.2093,-0.6618 0,0 13.3689,-2.6738 12.2041,-17.2871 -1.1648,-14.6133 -14.4017,-15.0576 -14.4017,-15.0576 l -8.1667,0 -6.0157,0.0313 0,-1e-4 -1.5534,0.008 0,0 -3.7802,0.0197 -3.6745,0.0686 c -5.1652,8.7467 -8.1294,18.9284 -8.1294,29.7985 0,13.2918 4.4302,25.5552 11.9015,35.4218 z m 6.9729,-1.2657 c -2.0038,0.3203 -4.0265,0.6787 -6.0527,1.0802 -7.5117,-9.7802 -11.9745,-21.9903 -11.9745,-35.2363 0,-10.8469 2.9942,-20.9985 8.2025,-29.6912 0.304,0.354 1.1785,1.1826 2.8131,1.3481 0.4998,0.0506 1.4611,0.0771 2.6342,0.088 -5.2232,8.1715 -8.2492,17.8623 -8.2492,28.2551 0,13.0245 4.752,24.9461 12.6266,34.1561 z m 8.6108,-1.1703 c -2.326,0.2637 -4.7134,0.5743 -7.1348,0.9405 -7.9895,-9.0676 -12.8319,-20.9354 -12.8319,-33.9263 0,-10.4299 3.1233,-20.1345 8.4883,-28.2489 2.6388,-4e-4 5.7342,-0.0501 7.2234,-0.0771 -6.1921,7.7935 -9.8876,17.6313 -9.8876,28.326 0,12.9574 5.425,24.6562 14.1426,32.9858 z m -9.4139,-64.1396 c 0.5201,-0.6795 1.0573,-1.3454 1.6099,-1.9979 l -1.0435,-0.7235 c -0.5594,0.6636 -1.1035,1.3405 -1.6301,2.0311 l 1.0637,0.6903 z m 83.7245,-0.9118 c -0.5362,-0.6957 -1.0893,-1.3779 -1.659,-2.0458 l -0.9605,0.8252 c 0.5791,0.6794 1.1413,1.3733 1.6849,2.0821 l 0.9346,-0.8615 z M 233.9386,392.088 c 1.5914,0.7388 2.2825,2.6278 1.5436,4.2192 -0.7388,1.5914 -2.6278,2.2825 -4.2191,1.5436 -1.5914,-0.7388 -2.2825,-2.6278 -1.5436,-4.2192 0.7388,-1.5914 2.6278,-2.2825 4.2191,-1.5436 z m -2.9371,1.2341 3.6498,1.6945 -0.6132,1.3206 -3.6498,-1.6945 0.6132,-1.3206 z m -15.0128,38.5577 c -0.8183,0.3799 -1.1737,1.3512 -0.7938,2.1695 0.3799,0.8183 1.3513,1.1736 2.1696,0.7938 0.8183,-0.3799 1.1736,-1.3513 0.7937,-2.1696 -0.3799,-0.8183 -1.3512,-1.1736 -2.1695,-0.7937 z m 1.5103,0.6346 -1.8768,0.8713 0.3153,0.6791 1.8768,-0.8714 -0.3153,-0.679 z m 16.9135,9.1189 c -0.902,-0.0143 -1.6448,0.7056 -1.6589,1.6077 -0.0143,0.902 0.7056,1.6448 1.6077,1.6589 0.902,0.0143 1.6448,-0.7056 1.6589,-1.6077 0.0143,-0.902 -0.7056,-1.6447 -1.6077,-1.6589 z m 1.0835,1.2287 -2.0688,-0.0325 -0.0118,0.7487 2.0688,0.0324 0.0118,-0.7486 z m 36.7038,-2.848 c -0.8794,-0.2012 -1.7554,0.3488 -1.9565,1.2284 -0.2011,0.8793 0.3489,1.7553 1.2284,1.9564 0.8794,0.2012 1.7554,-0.3488 1.9565,-1.2284 0.2011,-0.8793 -0.3489,-1.7553 -1.2284,-1.9564 z m 0.8049,1.4268 -2.017,-0.4612 -0.167,0.7299 2.0171,0.4611 0.1669,-0.7298 z m 84.6544,-49.3528 c -1.5914,0.7388 -2.2825,2.6278 -1.5436,4.2192 0.7388,1.5914 2.6278,2.2825 4.2192,1.5436 1.5913,-0.7388 2.2824,-2.6278 1.5435,-4.2192 -0.7388,-1.5914 -2.6278,-2.2825 -4.2191,-1.5436 z m 2.9371,1.2341 -3.6498,1.6945 0.6132,1.3206 3.6498,-1.6945 -0.6132,-1.3206 z m 15.6482,38.5577 c 0.8183,0.3799 1.1736,1.3512 0.7937,2.1695 -0.3799,0.8183 -1.3512,1.1736 -2.1695,0.7938 -0.8184,-0.3799 -1.1737,-1.3513 -0.7938,-2.1696 0.3799,-0.8183 1.3513,-1.1736 2.1696,-0.7937 z m -1.5103,0.6346 1.8767,0.8713 -0.3153,0.6791 -1.8767,-0.8714 0.3153,-0.679 z m -56.7215,8.2974 c 0.8803,0.1972 1.4341,1.0708 1.2368,1.9512 -0.1972,0.8803 -1.0707,1.4341 -1.9512,1.2368 -0.8803,-0.1972 -1.434,-1.0707 -1.2368,-1.9512 0.1972,-0.8803 1.0708,-1.434 1.9512,-1.2368 z m -1.3409,0.9412 2.0191,0.4523 -0.1637,0.7307 -2.0191,-0.4524 0.1637,-0.7306 z m 37.4185,-1.0238 c 0.8601,-0.2726 1.7783,0.2038 2.0506,1.0638 0.2726,0.8601 -0.2037,1.7782 -1.0638,2.0506 -0.86,0.2725 -1.7782,-0.2038 -2.0506,-1.0638 -0.2725,-0.8601 0.2038,-1.7782 1.0638,-2.0506 z m -0.6851,1.4879 1.9725,-0.6249 0.2261,0.7138 -1.9725,0.6248 -0.2261,-0.7137 z M 256.6225,301.4777 c 0.1433,-0.1492 0.2933,-0.2751 0.4495,-0.3784 0.2111,-0.1393 0.3811,-0.1458 0.5119,-0.0202 0.0435,0.0416 0.067,0.081 0.0717,0.1189 0.005,0.0385 -0.007,0.1132 -0.034,0.2257 -0.0236,0.0931 0.0131,0.2041 0.1115,0.3346 0.0978,0.1297 0.3147,0.356 0.6502,0.6781 0.5676,0.5448 0.9307,0.8701 1.0899,0.9754 0.0524,0.0322 0.0986,0.0496 0.1401,0.0535 0.0408,0.003 0.098,-0.006 0.1697,-0.0274 0.127,-0.044 0.2327,-0.0247 0.3179,0.0571 0.1188,0.1139 0.1237,0.2717 0.0157,0.474 -0.1184,0.2179 -0.2964,0.4519 -0.5359,0.7015 -0.409,0.4261 -0.706,0.5498 -0.8902,0.373 -0.0669,-0.0642 -0.0894,-0.1655 -0.0671,-0.3047 0.0175,-0.1066 -0.008,-0.2032 -0.0735,-0.289 -0.1458,-0.1876 -0.4927,-0.545 -1.0429,-1.073 -0.3804,-0.3652 -0.6406,-0.5815 -0.7799,-0.651 -0.0789,-0.0397 -0.1753,-0.0488 -0.2917,-0.0267 -0.091,0.0156 -0.159,0.0196 -0.2038,0.0113 -0.044,-0.007 -0.0872,-0.031 -0.1283,-0.0704 -0.0638,-0.0614 -0.0886,-0.1378 -0.0746,-0.2284 0.014,-0.0907 0.0724,-0.2186 0.1744,-0.3842 0.1193,-0.1989 0.2589,-0.3825 0.4194,-0.5497 z m 3.9466,-0.3644 c -0.0497,0.0472 -0.0647,0.0948 -0.0462,0.1426 0.0192,0.0473 0.0873,0.1339 0.2063,0.2594 0.18,0.1897 0.3316,0.3279 0.4526,0.4137 0.035,0.0235 0.0676,0.0377 0.0956,0.0416 0.0295,0.004 0.0732,4e-4 0.1328,-0.0111 0.1259,-0.0249 0.2266,0.003 0.3028,0.0835 0.0936,0.0987 0.1052,0.2201 0.0346,0.3653 -0.0704,0.1455 -0.2366,0.3422 -0.4982,0.5905 -0.4865,0.4613 -0.8288,0.5869 -1.0277,0.3772 -0.0334,-0.0351 -0.0536,-0.0712 -0.0597,-0.1061 -0.006,-0.0362 -0.002,-0.0973 0.0125,-0.1849 0.0166,-0.0984 0.007,-0.1867 -0.0289,-0.2648 -0.0355,-0.0781 -0.118,-0.1932 -0.2478,-0.3462 -0.0934,-0.112 -0.4507,-0.4955 -1.072,-1.1505 -0.1967,-0.2074 -0.3404,-0.34 -0.4298,-0.3978 -0.0892,-0.0563 -0.1797,-0.0736 -0.2729,-0.0506 -0.0876,0.0235 -0.1542,0.0314 -0.1984,0.0239 -0.0443,-0.007 -0.087,-0.0324 -0.1269,-0.0744 -0.0523,-0.0552 -0.0791,-0.1212 -0.0799,-0.1975 -0.002,-0.0764 0.0212,-0.1568 0.0704,-0.2397 0.0405,-0.0705 0.1106,-0.1515 0.2089,-0.2447 0.0437,-0.0415 0.1586,-0.1373 0.3466,-0.2867 0.0352,-0.0275 0.0892,-0.0758 0.1599,-0.1429 0.1183,-0.1123 0.2671,-0.2708 0.4475,-0.4754 0.115,-0.1293 0.1973,-0.2177 0.2471,-0.2649 0.2813,-0.2668 0.5874,-0.4102 0.9169,-0.4306 0.2976,-0.0178 0.5626,0.0958 0.797,0.3429 0.1298,0.1369 0.22,0.2899 0.2688,0.4573 0.0496,0.1681 0.0508,0.3284 0.004,0.4807 -0.0198,0.064 -0.0139,0.112 0.0174,0.1449 0.0414,0.0436 0.1069,0.0482 0.197,0.0137 0.1916,-0.0742 0.3745,-0.0834 0.548,-0.0299 0.1728,0.0541 0.3868,0.1869 0.6395,0.3979 0.105,0.0878 0.1835,0.1356 0.2333,0.1436 0.0497,0.008 0.1285,-0.0128 0.2352,-0.0633 0.0336,-0.0158 0.0726,-0.0165 0.117,-0.003 0.0458,0.0133 0.0843,0.0378 0.1185,0.0737 0.0435,0.0459 0.0723,0.1073 0.0857,0.1847 0.0126,0.0767 0.007,0.1531 -0.0173,0.2271 -0.0552,0.1628 -0.1783,0.3349 -0.3707,0.5174 -0.2557,0.2425 -0.512,0.3402 -0.7688,0.2903 -0.1145,-0.0209 -0.2396,-0.068 -0.3732,-0.1388 -0.1345,-0.0716 -0.3301,-0.1957 -0.587,-0.3722 -0.1652,-0.1135 -0.2979,-0.1767 -0.4003,-0.1916 -0.1022,-0.0135 -0.1986,0.0184 -0.2897,0.0961 z m -1.1987,-1.0347 0.4742,0.5431 c 0.004,0.005 0.0101,0.0107 0.0189,0.0199 0.0507,0.0535 0.0916,0.0831 0.1232,0.088 0.0301,0.005 0.0671,-0.0128 0.1088,-0.0523 0.1157,-0.1098 0.1679,-0.2233 0.1557,-0.341 -0.0114,-0.1186 -0.0882,-0.2522 -0.2304,-0.4021 -0.2737,-0.2885 -0.5003,-0.3469 -0.6806,-0.1758 -0.0511,0.0485 -0.0744,0.0967 -0.0699,0.1433 0.005,0.0465 0.0376,0.1054 0.1001,0.1769 z m 2.1639,-3.0475 1.1006,-0.8581 c 0.2231,-0.174 0.3815,-0.3056 0.4754,-0.3962 0.094,-0.0906 0.1766,-0.1898 0.2486,-0.2981 0.0228,-0.0325 0.0423,-0.0557 0.0591,-0.0689 0.0746,-0.0581 0.1756,-0.0645 0.3038,-0.0175 0.2098,0.0745 0.3953,0.216 0.5588,0.4256 0.0824,0.1056 0.1274,0.2042 0.1367,0.2959 0.008,0.0915 -0.0229,0.1636 -0.0909,0.2167 -0.0476,0.0371 -0.0925,0.0548 -0.1358,0.0536 -0.0432,-10e-4 -0.1179,-0.023 -0.2208,-0.0645 -0.1478,-0.0599 -0.2846,-0.0709 -0.4096,-0.0322 -0.1251,0.0386 -0.2974,0.1435 -0.5175,0.3151 -0.1645,0.1283 -0.2373,0.2399 -0.2213,0.3345 0.009,0.0505 0.0348,0.1065 0.0785,0.17 0.0438,0.0622 0.1609,0.2169 0.3536,0.464 0.0758,0.0972 0.1377,0.1466 0.1844,0.1476 0.0473,0.002 0.131,-0.0446 0.2524,-0.1392 0.06,-0.0468 0.0928,-0.0951 0.0979,-0.1445 0.004,-0.0502 -0.0177,-0.1146 -0.0675,-0.1921 -0.0637,-0.1028 -0.1034,-0.1749 -0.1197,-0.2183 -0.017,-0.043 -0.0213,-0.0891 -0.0129,-0.1372 0.007,-0.0525 0.0308,-0.0948 0.071,-0.1262 0.0585,-0.0456 0.1329,-0.0527 0.2238,-0.022 0.067,0.024 0.1575,0.0872 0.2713,0.191 0.1133,0.103 0.2214,0.2192 0.3227,0.3489 0.2003,0.2571 0.3293,0.4948 0.3868,0.7134 0.0312,0.1201 0.007,0.2097 -0.0711,0.2707 -0.049,0.0383 -0.0936,0.0504 -0.1339,0.0363 -0.0405,-0.014 -0.1011,-0.0617 -0.1807,-0.1427 -0.1646,-0.1673 -0.3302,-0.1852 -0.4969,-0.0552 -0.0644,0.0503 -0.0908,0.1069 -0.0778,0.1718 0.0121,0.0653 0.0672,0.1601 0.1645,0.2849 0.0597,0.0765 0.142,0.1714 0.2447,0.2852 0.1043,0.114 0.176,0.1865 0.2167,0.2175 0.0485,0.0397 0.111,0.0459 0.1844,0.018 0.0743,-0.0271 0.1801,-0.0949 0.3191,-0.2032 0.2143,-0.1671 0.3505,-0.3241 0.4108,-0.4715 0.0596,-0.1468 0.06,-0.3289 2e-4,-0.5471 -0.0329,-0.1253 -0.0465,-0.2166 -0.0396,-0.274 0.007,-0.0575 0.0356,-0.1067 0.0868,-0.1466 0.0599,-0.0468 0.1331,-0.0556 0.2186,-0.0273 0.0862,0.0291 0.1629,0.0883 0.2323,0.1773 0.0759,0.0973 0.1493,0.2366 0.2195,0.4172 0.0695,0.1811 0.1166,0.3532 0.1411,0.5173 0.01,0.0805 0.0113,0.1382 0.005,0.1739 -0.008,0.0354 -0.0276,0.0656 -0.0599,0.0921 -0.0277,0.0203 -0.0697,0.0464 -0.1294,0.0769 -0.1063,0.0521 -0.2381,0.1348 -0.3949,0.249 l -1.8166,1.4164 c -0.0731,0.057 -0.1437,0.0826 -0.2124,0.0774 -0.0681,-0.006 -0.1287,-0.0414 -0.1806,-0.108 -0.037,-0.0474 -0.0548,-0.0883 -0.0535,-0.1228 7e-4,-0.0338 0.0187,-0.0921 0.0548,-0.1725 0.0263,-0.0539 0.0383,-0.1047 0.0349,-0.1514 -0.004,-0.0477 -0.0232,-0.1051 -0.0581,-0.1741 -0.1446,-0.2819 -0.3786,-0.6317 -0.7028,-1.0475 -0.489,-0.6272 -0.8313,-0.9954 -1.0285,-1.1065 -0.0391,-0.0216 -0.0727,-0.0314 -0.0999,-0.0317 -0.0273,0.001 -0.0755,0.0134 -0.1432,0.0381 -0.1032,0.035 -0.1922,0.005 -0.2668,-0.0903 -0.0408,-0.0523 -0.0625,-0.1089 -0.0672,-0.1708 -0.005,-0.0618 0.0103,-0.1164 0.0437,-0.1638 0.0447,-0.0576 0.147,-0.1495 0.3072,-0.2743 z m 4.2497,-2.9475 1.8643,0.4108 c 0.1737,0.0383 0.2852,0.0425 0.3321,0.0126 0.0798,-0.0508 0.0581,-0.1731 -0.0647,-0.3663 -0.1391,-0.2189 -0.2459,-0.3609 -0.319,-0.4258 -0.0736,-0.0657 -0.1606,-0.0954 -0.2596,-0.0886 -0.0804,0.005 -0.1447,-0.003 -0.1927,-0.0249 -0.048,-0.0221 -0.0912,-0.0621 -0.1291,-0.1218 -0.0927,-0.1459 -0.0637,-0.2956 0.0851,-0.4489 0.0606,-0.0635 0.1801,-0.1521 0.3594,-0.266 0.2309,-0.1467 0.4007,-0.2322 0.5089,-0.2572 0.172,-0.0406 0.3,0.007 0.3865,0.143 0.0718,0.113 0.0685,0.2339 -0.009,0.3645 -0.032,0.0515 -0.0504,0.0918 -0.0561,0.1192 -0.006,0.0288 -0.003,0.0636 0.006,0.1062 0.0315,0.1412 0.1484,0.3718 0.3505,0.6931 l 0.5404,0.8501 c 0.0825,0.1299 0.1965,0.3075 0.3417,0.5326 0.1962,0.3052 0.32,0.5363 0.3724,0.693 0.0667,0.195 0.0449,0.3264 -0.0634,0.3965 -0.0475,0.0289 -0.0958,0.0446 -0.1449,0.0433 -0.0478,-8e-4 -0.1384,-0.0171 -0.2697,-0.0473 l -2.2396,-0.5209 c -0.1564,-0.0368 -0.2665,-0.0356 -0.3291,0.004 -0.0932,0.0591 -0.0468,0.2358 0.1399,0.5295 0.1534,0.2413 0.2711,0.3989 0.3511,0.4729 0.0795,0.0733 0.1698,0.1083 0.2695,0.1025 0.1393,-0.007 0.2376,0.0351 0.2959,0.1268 0.1539,0.242 0.002,0.5084 -0.4547,0.7988 -0.2059,0.1309 -0.3861,0.2017 -0.5394,0.2129 -0.1531,0.01 -0.2656,-0.041 -0.3375,-0.1541 -0.0373,-0.0587 -0.0546,-0.1102 -0.0521,-0.1531 0.002,-0.0427 0.0254,-0.1136 0.0683,-0.2122 0.0409,-0.0946 0.0296,-0.2074 -0.0334,-0.341 -0.1167,-0.2408 -0.3081,-0.5715 -0.5757,-0.9924 -0.2852,-0.4487 -0.5163,-0.7604 -0.6923,-0.9372 -0.0648,-0.0637 -0.1211,-0.1055 -0.17,-0.1255 -0.0499,-0.0197 -0.1142,-0.0275 -0.1946,-0.0227 -0.0931,0.006 -0.1647,-0.001 -0.2153,-0.0205 -0.0498,-0.0196 -0.0914,-0.0557 -0.1248,-0.1082 -0.1057,-0.1664 -0.0465,-0.3515 0.1785,-0.5558 0.0763,-0.0684 0.2213,-0.1707 0.4357,-0.3069 0.1221,-0.0776 0.2187,-0.1227 0.2878,-0.1367 0.0691,-0.0139 0.1674,-0.006 0.2927,0.0214 z m 3.3891,-2.2874 1.2434,-0.6337 c 0.252,-0.1285 0.4326,-0.2276 0.542,-0.2988 0.1095,-0.0711 0.2094,-0.1529 0.3005,-0.2455 0.0286,-0.0277 0.0523,-0.0468 0.0713,-0.0565 0.0843,-0.0429 0.1845,-0.03 0.3016,0.0404 0.1918,0.113 0.3471,0.2872 0.4678,0.5239 0.0609,0.1193 0.0864,0.2247 0.0782,0.3165 -0.01,0.0914 -0.0537,0.1564 -0.1305,0.1955 -0.0536,0.0274 -0.1012,0.0363 -0.1434,0.0269 -0.0422,-0.009 -0.1114,-0.045 -0.2046,-0.1052 -0.1337,-0.0869 -0.266,-0.1236 -0.396,-0.1094 -0.1302,0.0142 -0.3192,0.0845 -0.568,0.2112 -0.1858,0.0948 -0.2785,0.1906 -0.2807,0.2864 -8e-4,0.0514 0.014,0.1112 0.0449,0.182 0.0312,0.0693 0.1168,0.2435 0.2591,0.5225 0.056,0.1099 0.1074,0.1701 0.1531,0.18 0.0461,0.0108 0.1371,-0.0189 0.2743,-0.0889 0.0677,-0.0345 0.1091,-0.0757 0.1234,-0.1233 0.0138,-0.0485 0.004,-0.1159 -0.0298,-0.2014 -0.043,-0.113 -0.0684,-0.1913 -0.0761,-0.237 -0.008,-0.0454 -0.004,-0.0915 0.0134,-0.1372 0.0171,-0.0501 0.0482,-0.0872 0.0937,-0.1103 0.0661,-0.0337 0.1404,-0.0267 0.2239,0.0207 0.0612,0.0363 0.1379,0.1156 0.2301,0.2391 0.0916,0.1225 0.1758,0.2572 0.2505,0.4038 0.148,0.2903 0.2296,0.5482 0.2446,0.7737 0.008,0.1239 -0.0328,0.2073 -0.1212,0.2524 -0.0553,0.0282 -0.1015,0.0316 -0.1384,0.0102 -0.037,-0.0214 -0.0875,-0.0797 -0.1504,-0.1744 -0.1297,-0.1954 -0.2889,-0.2444 -0.4774,-0.1484 -0.0726,0.037 -0.1093,0.0877 -0.1089,0.1538 -5e-4,0.0664 0.0356,0.17 0.1075,0.311 0.044,0.0864 0.1069,0.1953 0.1862,0.3264 0.0807,0.1318 0.1374,0.2165 0.1715,0.2548 0.0401,0.0482 0.1002,0.066 0.1777,0.0526 0.0779,-0.0125 0.1947,-0.059 0.3517,-0.1391 0.2421,-0.1233 0.4057,-0.2516 0.4929,-0.3849 0.0863,-0.1328 0.1212,-0.3115 0.104,-0.5371 -0.009,-0.1294 -0.005,-0.2215 0.013,-0.2766 0.0177,-0.0552 0.0552,-0.098 0.113,-0.1275 0.0678,-0.0345 0.1413,-0.0293 0.2198,0.0147 0.0791,0.0449 0.1432,0.1176 0.1945,0.2181 0.056,0.11 0.1016,0.2606 0.1363,0.4513 0.0339,0.1911 0.0475,0.3688 0.0404,0.5346 -0.005,0.0809 -0.015,0.1379 -0.0279,0.1717 -0.0143,0.0333 -0.0396,0.0593 -0.0763,0.0792 -0.0311,0.0146 -0.0773,0.0322 -0.1416,0.0508 -0.1143,0.0311 -0.2594,0.0873 -0.4351,0.1696 l -2.0522,1.0461 c -0.0826,0.0421 -0.1568,0.0539 -0.2233,0.0357 -0.0656,-0.0186 -0.1185,-0.065 -0.1568,-0.1402 -0.0273,-0.0536 -0.037,-0.0971 -0.0292,-0.1308 0.007,-0.0331 0.0359,-0.0869 0.0867,-0.159 0.0358,-0.0478 0.0573,-0.0955 0.0627,-0.142 0.005,-0.0475 -0.003,-0.1075 -0.024,-0.1819 -0.0883,-0.3042 -0.2517,-0.6921 -0.4911,-1.1618 -0.3612,-0.7085 -0.6275,-1.135 -0.8,-1.2815 -0.0343,-0.0287 -0.0655,-0.0447 -0.0921,-0.05 -0.0271,-0.004 -0.0766,-0.001 -0.1479,0.0101 -0.108,0.0148 -0.1896,-0.0311 -0.2448,-0.1392 -0.0301,-0.0591 -0.0408,-0.1188 -0.0336,-0.1805 0.007,-0.0616 0.0322,-0.1123 0.0741,-0.1525 0.0547,-0.0481 0.1727,-0.1189 0.3535,-0.2111 z m 7.3323,-3.4737 c 0.1734,-0.0682 0.4207,-0.1087 0.7401,-0.122 0.0384,-0.001 0.0674,-0.006 0.0881,-0.0143 0.0165,-0.006 0.0604,-0.0441 0.1306,-0.1113 0.0231,-0.0227 0.0496,-0.0388 0.0798,-0.0506 0.113,-0.0444 0.2719,0.01 0.4768,0.1638 0.2059,0.1538 0.3449,0.3224 0.4175,0.5069 0.0419,0.1069 0.0494,0.2095 0.0222,0.3051 -0.0281,0.0961 -0.0816,0.1602 -0.1627,0.192 -0.0673,0.0265 -0.1288,0.0325 -0.1831,0.0186 -0.0537,-0.0151 -0.1824,-0.0687 -0.3854,-0.1646 -0.2861,-0.1347 -0.5279,-0.1643 -0.7229,-0.0876 -0.095,0.0373 -0.1597,0.0932 -0.1957,0.1664 -0.0365,0.0744 -0.0384,0.1533 -0.005,0.2377 0.0656,0.1669 0.2444,0.2416 0.5356,0.2247 0.3946,-0.0203 0.6517,-0.0226 0.7704,-0.007 0.5232,0.0687 0.8758,0.3346 1.057,0.796 0.1605,0.4083 0.1448,0.7998 -0.0467,1.1741 -0.1957,0.3818 -0.5364,0.6686 -1.0197,0.8584 -0.2158,0.0849 -0.4552,0.145 -0.7171,0.181 -0.2622,0.035 -0.4626,0.0344 -0.5997,-0.002 -0.1042,-0.0293 -0.2299,-0.1339 -0.3757,-0.3146 -0.1457,-0.1808 -0.2576,-0.3691 -0.3343,-0.5644 -0.0371,-0.0942 -0.0475,-0.1716 -0.0328,-0.233 0.018,-0.0785 0.0587,-0.1296 0.1226,-0.1548 0.0647,-0.0253 0.1406,-0.0121 0.2286,0.0394 0.0519,0.0284 0.1889,0.1309 0.41,0.308 0.1041,0.0826 0.2385,0.133 0.4019,0.1504 0.164,0.0171 0.3178,-0.002 0.4627,-0.0594 0.1252,-0.0493 0.2161,-0.1145 0.273,-0.198 0.0568,-0.0836 0.0691,-0.1665 0.0367,-0.249 -0.0301,-0.0765 -0.0871,-0.1301 -0.1694,-0.1623 -0.082,-0.0313 -0.2009,-0.0445 -0.357,-0.0388 -0.2748,0.008 -0.4895,0.002 -0.644,-0.0211 -0.155,-0.0219 -0.3087,-0.0657 -0.4607,-0.1329 -0.3719,-0.1632 -0.6248,-0.4162 -0.7586,-0.7568 -0.0663,-0.1688 -0.0966,-0.3473 -0.0905,-0.5345 0.006,-0.1871 0.0493,-0.3639 0.1303,-0.5305 0.1771,-0.3811 0.4691,-0.6522 0.8773,-0.8126 z m 2.785,-0.8971 1.3425,-0.3814 c 0.2721,-0.0773 0.4684,-0.1397 0.5895,-0.1884 0.1212,-0.0486 0.235,-0.1095 0.3424,-0.1828 0.0333,-0.0215 0.0602,-0.0357 0.0807,-0.0415 0.091,-0.0259 0.1869,0.006 0.2881,0.0979 0.1664,0.1479 0.2852,0.3488 0.3578,0.6045 0.0366,0.1288 0.0414,0.2371 0.0154,0.3256 -0.0271,0.0877 -0.0827,0.1429 -0.1657,0.1666 -0.058,0.0164 -0.1063,0.016 -0.1458,-0.001 -0.0397,-0.0171 -0.1007,-0.0656 -0.1805,-0.1427 -0.1145,-0.1112 -0.237,-0.1728 -0.3675,-0.184 -0.1304,-0.0112 -0.3294,0.0212 -0.5979,0.0975 -0.2007,0.057 -0.3102,0.1331 -0.3309,0.2267 -0.0107,0.0502 -0.008,0.1118 0.009,0.1872 0.0172,0.0741 0.0676,0.2615 0.1532,0.5628 0.0338,0.1186 0.0726,0.1876 0.1154,0.2062 0.0432,0.0195 0.1383,0.008 0.2864,-0.0342 0.073,-0.0208 0.1217,-0.0533 0.1448,-0.0971 0.023,-0.0449 0.0269,-0.1129 0.01,-0.2034 -0.0204,-0.1192 -0.0301,-0.2009 -0.0288,-0.2473 4e-4,-0.0462 0.0138,-0.0905 0.0396,-0.1319 0.0265,-0.0459 0.0642,-0.0764 0.1132,-0.0903 0.0714,-0.0202 0.143,0.001 0.2157,0.0637 0.0531,0.0475 0.1131,0.1401 0.1796,0.2791 0.0662,0.1379 0.1227,0.2863 0.1677,0.4445 0.089,0.3135 0.1191,0.5823 0.0904,0.8066 -0.0162,0.1229 -0.0723,0.197 -0.1678,0.2241 -0.0597,0.017 -0.1056,0.0114 -0.1376,-0.0168 -0.0322,-0.0281 -0.0705,-0.0951 -0.1139,-0.2001 -0.0895,-0.2169 -0.2363,-0.2957 -0.4397,-0.2379 -0.0785,0.0222 -0.1242,0.0649 -0.1366,0.1298 -0.0134,0.0651 0.002,0.1736 0.0453,0.3259 0.0265,0.0933 0.0672,0.2123 0.1197,0.3563 0.0536,0.1449 0.0928,0.239 0.1189,0.2831 0.03,0.055 0.0856,0.0841 0.1642,0.086 0.0789,0.003 0.2025,-0.0203 0.372,-0.0685 0.2614,-0.0742 0.4467,-0.1685 0.558,-0.2824 0.1103,-0.1136 0.1791,-0.2822 0.2058,-0.5068 0.0164,-0.1287 0.0383,-0.2182 0.0663,-0.2688 0.028,-0.0508 0.0731,-0.0856 0.1355,-0.1033 0.0732,-0.0208 0.1443,-0.001 0.2129,0.0569 0.0689,0.0593 0.1177,0.143 0.1486,0.2515 0.0337,0.1188 0.0493,0.2755 0.0465,0.4693 -0.004,0.1939 -0.0247,0.371 -0.0638,0.5323 -0.0211,0.0783 -0.0414,0.1324 -0.0606,0.163 -0.0204,0.03 -0.0503,0.0505 -0.0901,0.0629 -0.0332,0.008 -0.082,0.0168 -0.1488,0.0225 -0.1182,0.008 -0.2714,0.0355 -0.4596,0.0824 l -2.2158,0.6295 c -0.0891,0.0253 -0.1642,0.0225 -0.226,-0.008 -0.0608,-0.0309 -0.1037,-0.0868 -0.1266,-0.168 -0.0165,-0.0577 -0.0176,-0.1023 -0.003,-0.1339 0.0133,-0.0311 0.052,-0.0783 0.1157,-0.1392 0.0446,-0.04 0.0747,-0.0827 0.0891,-0.1272 0.014,-0.0457 0.018,-0.106 0.0116,-0.1832 -0.028,-0.3154 -0.1132,-0.7276 -0.2573,-1.2348 -0.2174,-0.765 -0.3962,-1.2349 -0.5372,-1.412 -0.0282,-0.0347 -0.0555,-0.0565 -0.0807,-0.0669 -0.0257,-0.009 -0.0749,-0.016 -0.1469,-0.0185 -0.1089,-0.007 -0.1801,-0.0673 -0.2133,-0.184 -0.0181,-0.0639 -0.017,-0.1245 0.002,-0.1835 0.0188,-0.0592 0.0534,-0.104 0.1022,-0.1355 0.0629,-0.0365 0.1923,-0.0831 0.3876,-0.1386 z m 7.7487,-0.2534 0.1315,0.7425 c 0.0792,0.4476 0.1063,0.7706 0.0799,0.968 -0.0562,0.4159 -0.2843,0.7497 -0.6831,1.0024 -0.241,0.1552 -0.5253,0.2623 -0.8531,0.3203 -0.5725,0.1014 -1.0582,0.0279 -1.4575,-0.2217 -0.195,-0.123 -0.3423,-0.2789 -0.4416,-0.468 -0.0995,-0.1891 -0.1838,-0.4741 -0.2509,-0.8531 -0.0261,-0.1475 -0.0648,-0.3923 -0.1157,-0.7326 -0.0367,-0.2397 -0.0622,-0.3992 -0.0757,-0.476 -0.0298,-0.1682 -0.0614,-0.2826 -0.0958,-0.3439 -0.0333,-0.0606 -0.0925,-0.1132 -0.1776,-0.1571 -0.1331,-0.0664 -0.2097,-0.1524 -0.2288,-0.2605 -0.014,-0.0789 0.004,-0.1537 0.0524,-0.2256 0.0493,-0.0719 0.1205,-0.1274 0.2153,-0.1667 0.1875,-0.0791 0.4153,-0.1431 0.6829,-0.1905 0.2949,-0.0522 0.5433,-0.0695 0.7468,-0.053 0.1994,0.014 0.3149,0.1082 0.3454,0.2805 0.0152,0.0852 -0.001,0.1577 -0.0469,0.2183 -0.0107,0.0147 -0.059,0.0555 -0.144,0.1229 -0.0526,0.0383 -0.0818,0.097 -0.0887,0.1753 -0.008,0.0795 0.004,0.2049 0.0349,0.3773 0.0312,0.1765 0.0914,0.559 0.1805,1.1472 0.0536,0.3504 0.1829,0.6017 0.3904,0.7535 0.1692,0.1253 0.366,0.1676 0.5906,0.1278 0.1434,-0.0254 0.2668,-0.0783 0.3721,-0.159 0.1055,-0.0798 0.1795,-0.1775 0.2216,-0.291 0.0342,-0.0885 0.0515,-0.1827 0.0527,-0.2825 0,-0.1007 -0.0144,-0.2352 -0.0441,-0.4034 l -0.1187,-0.6698 c -0.1,-0.5114 -0.1659,-0.8093 -0.199,-0.8945 -0.032,-0.0854 -0.1019,-0.1448 -0.2094,-0.1781 -0.1006,-0.0305 -0.1711,-0.0618 -0.2126,-0.0942 -0.0405,-0.0324 -0.0655,-0.0772 -0.0756,-0.1344 -0.0215,-0.1215 0.0267,-0.2211 0.1438,-0.2997 0.1179,-0.0786 0.3175,-0.1429 0.5997,-0.1929 0.2757,-0.0488 0.4815,-0.0563 0.6143,-0.0241 0.1339,0.033 0.2115,0.1092 0.2327,0.2286 0.0105,0.0593 0.007,0.1047 -0.009,0.1365 -0.0167,0.033 -0.0648,0.0865 -0.1458,0.1608 -0.0832,0.0779 -0.1255,0.1529 -0.1268,0.2249 -0.001,0.0731 0.0365,0.3342 0.1127,0.7855 z m 2.4076,-0.5379 0.1784,1.4072 c 0.0402,0.317 0.09,0.518 0.1504,0.6039 0.0735,0.1002 0.2046,0.1389 0.395,0.1147 0.2052,-0.026 0.3605,-0.0978 0.4664,-0.2144 0.1057,-0.1175 0.1673,-0.287 0.1869,-0.5094 0.01,-0.1363 0.063,-0.211 0.1577,-0.2231 0.0957,-0.0121 0.1792,0.0273 0.2521,0.1158 0.0721,0.0897 0.1185,0.2125 0.1382,0.3672 0.0321,0.2533 -0.0164,0.5347 -0.1453,0.8445 -0.0401,0.0976 -0.0781,0.1663 -0.1132,0.2057 -0.0353,0.0385 -0.0811,0.0614 -0.1362,0.0684 l -0.6094,-0.007 -1.8832,0.2387 c -0.1242,0.0157 -0.2137,0.0101 -0.2685,-0.0159 -0.0794,-0.0378 -0.1251,-0.1032 -0.1371,-0.1974 -0.007,-0.0574 -6e-4,-0.1008 0.0206,-0.1323 0.0204,-0.0302 0.0744,-0.0774 0.1618,-0.1396 0.0951,-0.0683 0.1505,-0.1541 0.1673,-0.2582 0.0124,-0.0866 -0.007,-0.333 -0.0579,-0.7368 -0.0239,-0.1884 -0.0628,-0.4588 -0.1169,-0.8112 -0.0522,-0.3379 -0.0901,-0.5924 -0.1136,-0.7638 -0.0208,-0.1632 -0.0461,-0.2738 -0.0758,-0.3316 -0.0307,-0.0578 -0.083,-0.0947 -0.158,-0.1119 -0.1248,-0.032 -0.205,-0.0601 -0.2409,-0.0853 -0.0644,-0.0438 -0.1002,-0.0978 -0.1086,-0.1638 -0.0188,-0.1485 0.0753,-0.2763 0.2835,-0.3814 0.1763,-0.0903 0.4195,-0.1563 0.7304,-0.1957 0.3487,-0.0442 0.6117,-0.0563 0.7897,-0.0374 0.2298,0.0272 0.355,0.1229 0.3759,0.2883 0.009,0.0679 3e-4,0.12 -0.025,0.1562 -0.0253,0.0361 -0.0924,0.0894 -0.2004,0.1593 -0.0637,0.0432 -0.0993,0.1083 -0.1072,0.1944 -0.007,0.0859 0.007,0.2702 0.0429,0.5516 z m 4.0866,-1.7677 c 0.2373,-0.006 0.4616,0.0266 0.674,0.0973 0.0945,0.0335 0.1598,0.0488 0.1942,0.048 0.036,-0.001 0.1115,-0.026 0.2263,-0.0764 0.0375,-0.0156 0.0763,-0.024 0.1162,-0.025 0.101,-0.002 0.2,0.0636 0.2952,0.1974 0.1537,0.2145 0.2348,0.451 0.2412,0.7103 0.004,0.1771 -0.0321,0.3215 -0.108,0.4331 -0.0762,0.1106 -0.1787,0.168 -0.3066,0.1711 -0.1057,0.003 -0.2097,-0.038 -0.3129,-0.1219 -0.0312,-0.0268 -0.1097,-0.1208 -0.2324,-0.2855 -0.2062,-0.2724 -0.4387,-0.4059 -0.6983,-0.3994 -0.2354,0.006 -0.4193,0.1085 -0.5535,0.307 -0.1333,0.1995 -0.1963,0.4647 -0.188,0.7958 0.0122,0.4923 0.1329,0.9082 0.363,1.2497 0.0855,0.1233 0.1881,0.221 0.3058,0.293 0.1178,0.072 0.2337,0.107 0.3477,0.1042 0.0946,-0.002 0.1706,-0.0401 0.2292,-0.1121 0.0593,-0.0722 0.0877,-0.1647 0.085,-0.2754 -0.002,-0.0991 -0.0301,-0.1681 -0.0813,-0.2079 -0.0208,-0.0164 -0.0395,-0.0254 -0.0563,-0.0282 -0.0177,-0.003 -0.0697,-0.003 -0.1568,-0.001 -0.0779,0.002 -0.1435,-0.0249 -0.1958,-0.0795 -0.0533,-0.0557 -0.081,-0.1267 -0.0832,-0.2131 -0.004,-0.1709 0.0928,-0.2946 0.2894,-0.3722 0.2178,-0.0835 0.469,-0.1287 0.7554,-0.1359 0.306,-0.008 0.5637,0.022 0.7741,0.0895 0.1991,0.0648 0.3005,0.1889 0.305,0.3723 0.002,0.0738 -0.0187,0.1387 -0.0629,0.1946 -0.044,0.056 -0.1016,0.0901 -0.1747,0.1014 -0.0627,0.0121 -0.1031,0.0289 -0.122,0.0516 -0.018,0.0214 -0.0362,0.0757 -0.0545,0.1605 -0.0698,0.3289 -0.215,0.6068 -0.4357,0.8327 -0.152,0.1546 -0.3373,0.2763 -0.555,0.3661 -0.2176,0.0898 -0.4483,0.1377 -0.6902,0.1437 -0.3968,0.01 -0.7637,-0.0857 -1.0998,-0.2851 -0.3454,-0.2034 -0.6124,-0.4934 -0.7989,-0.8706 -0.1562,-0.3127 -0.2388,-0.6545 -0.2479,-1.0224 -0.009,-0.3733 0.0701,-0.7297 0.2398,-1.0694 0.1792,-0.3652 0.4356,-0.649 0.7691,-0.8535 0.2915,-0.1802 0.6258,-0.275 1.0041,-0.2844 z m 3.7081,0.005 c 0.2067,0.005 0.4008,0.0316 0.5823,0.0775 0.2452,0.0622 0.3645,0.1835 0.3597,0.3648 -0.002,0.0601 -0.0148,0.1041 -0.0396,0.133 -0.0249,0.0299 -0.0881,0.0715 -0.1898,0.1269 -0.0846,0.0453 -0.142,0.1471 -0.1721,0.3078 -0.0301,0.1596 -0.0514,0.4724 -0.0634,0.9373 -0.0205,0.7865 -0.0164,1.274 0.0129,1.4625 0.0116,0.0605 0.0297,0.1063 0.0549,0.1396 0.0251,0.0325 0.0706,0.0684 0.1345,0.1071 0.118,0.0641 0.1749,0.1553 0.1719,0.2734 -0.004,0.1645 -0.1176,0.2745 -0.3398,0.3309 -0.2408,0.0591 -0.5338,0.0852 -0.8796,0.0762 -0.5904,-0.0154 -0.8818,-0.1516 -0.8753,-0.4068 0.002,-0.0928 0.0622,-0.1777 0.1802,-0.2549 0.0906,-0.0588 0.1447,-0.1428 0.1641,-0.2488 0.0405,-0.2342 0.071,-0.7314 0.0909,-1.4937 0.0137,-0.5271 -0.002,-0.8651 -0.0441,-1.0149 -0.0238,-0.085 -0.0821,-0.1625 -0.1767,-0.2335 -0.0727,-0.0569 -0.1216,-0.1045 -0.1456,-0.1431 -0.0241,-0.0376 -0.0358,-0.0854 -0.0343,-0.1423 0.002,-0.0886 0.0421,-0.1582 0.1185,-0.2089 0.0765,-0.0508 0.2103,-0.0937 0.4014,-0.1299 0.2275,-0.0458 0.4572,-0.0662 0.689,-0.0602 z m 6.7399,1.7614 -0.0398,-0.2267 c -0.0266,-0.1322 -0.0713,-0.2248 -0.1363,-0.278 -0.114,-0.1005 -0.1617,-0.2086 -0.1407,-0.327 0.046,-0.2597 0.4115,-0.3287 1.0963,-0.2073 0.3423,0.0607 0.5978,0.1392 0.7648,0.2331 0.0562,0.0335 0.0993,0.0776 0.1271,0.1329 0.0279,0.0552 0.0367,0.1115 0.0263,0.1706 -0.009,0.0509 -0.025,0.0877 -0.0461,0.1108 -0.0221,0.0239 -0.0778,0.0676 -0.1681,0.1308 -0.0523,0.0347 -0.0822,0.0754 -0.0905,0.1221 -0.0125,0.0706 4e-4,0.194 0.0388,0.3711 l 0.0868,0.3978 c 0.0395,0.1805 0.0707,0.2963 0.0918,0.3472 0.0212,0.0509 0.0508,0.0797 0.0883,0.0864 0.0411,0.007 0.0804,-0.0126 0.119,-0.0604 0.0396,-0.0476 0.0954,-0.1448 0.1692,-0.2902 l 0.2034,-0.4031 c 0.058,-0.115 0.0915,-0.2033 0.1024,-0.2646 0.0143,-0.081 -0.0135,-0.1417 -0.0837,-0.1809 -0.14,-0.0815 -0.1976,-0.1924 -0.1729,-0.3316 0.0218,-0.1226 0.0948,-0.1996 0.2199,-0.2309 0.1253,-0.0325 0.3209,-0.0256 0.5867,0.0215 0.1734,0.0307 0.3036,0.0774 0.3925,0.1393 0.1226,0.0839 0.1719,0.1932 0.1481,0.3272 -0.0105,0.0592 -0.0313,0.108 -0.0626,0.1463 -0.0313,0.0384 -0.0906,0.0857 -0.1763,0.1445 -0.0567,0.038 -0.1018,0.0805 -0.1368,0.1289 -0.0359,0.0482 -0.0944,0.1493 -0.1775,0.3048 l -0.7182,1.3315 c -0.3507,0.6179 -0.5618,0.9854 -0.6316,1.1026 -0.0706,0.1171 -0.1408,0.2203 -0.2095,0.311 -0.0522,0.0657 -0.1053,0.1098 -0.1588,0.1304 -0.0535,0.0205 -0.12,0.0236 -0.2004,0.009 -0.1068,-0.0189 -0.1881,-0.06 -0.2444,-0.1247 -0.0554,-0.0644 -0.0947,-0.1614 -0.1179,-0.2908 l -0.276,-1.5238 c -0.0145,-0.084 -0.0274,-0.1378 -0.0377,-0.1599 -0.0109,-0.0233 -0.0282,-0.0371 -0.0538,-0.0416 -0.0374,-0.007 -0.074,0.0136 -0.1095,0.0598 -0.0355,0.0462 -0.1098,0.1679 -0.2222,0.3655 l -0.5465,0.9634 c -0.1007,0.1749 -0.1872,0.286 -0.2591,0.3354 -0.0717,0.0484 -0.1701,0.062 -0.2951,0.0397 -0.1124,-0.0198 -0.1957,-0.0657 -0.2506,-0.1386 -0.0541,-0.0717 -0.0944,-0.1903 -0.1201,-0.3533 l -0.4775,-3.0377 c -0.0194,-0.1245 -0.0352,-0.1991 -0.0469,-0.2236 -0.011,-0.0233 -0.0531,-0.0673 -0.1248,-0.1303 -0.081,-0.069 -0.111,-0.1653 -0.0885,-0.292 0.0506,-0.2857 0.3883,-0.3735 1.0119,-0.263 0.3195,0.0567 0.546,0.1236 0.6794,0.1998 0.1291,0.0742 0.1796,0.1871 0.1529,0.3377 -0.008,0.0468 -0.0178,0.0793 -0.0289,0.0998 -0.011,0.0195 -0.0451,0.0627 -0.1027,0.1275 -0.0278,0.0347 -0.0472,0.0805 -0.0574,0.1376 -0.0178,0.1007 0.004,0.3221 0.0669,0.6642 l 0.0578,0.3112 c 0.025,0.1297 0.043,0.209 0.053,0.2376 0.0112,0.0277 0.0308,0.044 0.059,0.0489 0.0695,0.0124 0.1615,-0.087 0.2746,-0.2993 l 0.1709,-0.3275 c 0.0125,-0.0224 0.0205,-0.0413 0.0229,-0.0548 0.003,-0.0166 0.002,-0.0392 -0.001,-0.0666 z m 4.4655,-0.2698 1.3434,0.3785 c 0.2722,0.0767 0.4721,0.1265 0.6007,0.1485 0.1287,0.022 0.2576,0.0298 0.3874,0.0237 0.0397,-9e-4 0.0701,10e-4 0.0906,0.007 0.091,0.0257 0.1559,0.1031 0.1941,0.2344 0.0642,0.2131 0.0601,0.4465 -0.012,0.7023 -0.0363,0.1289 -0.0891,0.2236 -0.1575,0.2854 -0.069,0.0606 -0.1454,0.0784 -0.2284,0.0551 -0.058,-0.0164 -0.099,-0.0421 -0.1236,-0.0776 -0.0248,-0.0354 -0.0513,-0.1086 -0.0789,-0.2161 -0.0392,-0.1547 -0.1114,-0.2714 -0.2166,-0.3493 -0.1052,-0.0778 -0.2917,-0.1544 -0.5604,-0.2302 -0.2007,-0.0566 -0.3339,-0.0491 -0.4006,0.0198 -0.0355,0.0371 -0.0652,0.0912 -0.0905,0.164 -0.0242,0.0721 -0.0794,0.2582 -0.1644,0.5596 -0.0334,0.1188 -0.0365,0.1979 -0.01,0.2361 0.0265,0.0393 0.1136,0.0792 0.2617,0.1209 0.0733,0.0207 0.1316,0.0185 0.1744,-0.007 0.043,-0.0263 0.0819,-0.0821 0.1148,-0.1682 0.0451,-0.1122 0.0797,-0.1869 0.105,-0.2257 0.0245,-0.0392 0.0592,-0.0699 0.1029,-0.0916 0.0467,-0.0252 0.0946,-0.0314 0.1437,-0.0175 0.0715,0.0201 0.1212,0.0758 0.1504,0.1672 0.0202,0.0682 0.0229,0.1785 0.007,0.3317 -0.0158,0.1523 -0.0454,0.3083 -0.09,0.4667 -0.0884,0.3136 -0.2036,0.5583 -0.3457,0.7342 -0.0781,0.0963 -0.1647,0.1299 -0.2602,0.103 -0.0598,-0.0168 -0.096,-0.0457 -0.1085,-0.0864 -0.0127,-0.0408 -0.0102,-0.1179 0.008,-0.2301 0.0373,-0.2316 -0.0464,-0.3757 -0.2499,-0.433 -0.0785,-0.0222 -0.1398,-0.01 -0.1844,0.039 -0.0454,0.0485 -0.0892,0.149 -0.1322,0.3014 -0.0262,0.0933 -0.054,0.2159 -0.0847,0.3661 -0.0302,0.1514 -0.0461,0.2522 -0.0471,0.3034 -0.003,0.0626 0.0289,0.1166 0.0949,0.1592 0.0658,0.0438 0.1831,0.0889 0.3527,0.1367 0.2615,0.0737 0.4687,0.0905 0.6232,0.0518 0.1535,-0.0389 0.3004,-0.1466 0.4409,-0.3239 0.0814,-0.1008 0.147,-0.1658 0.1973,-0.1942 0.0505,-0.0286 0.1071,-0.0346 0.1695,-0.017 0.0733,0.0207 0.1236,0.0744 0.1516,0.16 0.0275,0.0867 0.0253,0.1835 -0.005,0.2921 -0.0335,0.1188 -0.1023,0.2605 -0.2062,0.424 -0.1047,0.1634 -0.2154,0.3032 -0.3332,0.4201 -0.059,0.0557 -0.1047,0.091 -0.1371,0.1071 -0.033,0.0148 -0.0692,0.0167 -0.1097,0.006 -0.0327,-0.0103 -0.0786,-0.0287 -0.1385,-0.0587 -0.105,-0.0548 -0.2497,-0.1121 -0.4346,-0.1707 l -2.2171,-0.6246 c -0.0893,-0.0252 -0.1518,-0.0669 -0.1882,-0.1255 -0.0356,-0.0581 -0.0429,-0.1281 -0.02,-0.2093 0.0162,-0.0579 0.0387,-0.0964 0.0673,-0.1159 0.0276,-0.0195 0.0852,-0.0395 0.1714,-0.0579 0.059,-0.0108 0.1071,-0.0313 0.1426,-0.0617 0.0359,-0.0316 0.0709,-0.0808 0.1058,-0.1499 0.1415,-0.2834 0.2848,-0.6791 0.4279,-1.1866 0.2156,-0.7655 0.3095,-1.2594 0.2822,-1.4841 -0.006,-0.0444 -0.0177,-0.0773 -0.0337,-0.0993 -0.017,-0.0213 -0.0555,-0.0529 -0.1155,-0.0928 -0.0892,-0.0625 -0.1181,-0.1516 -0.0852,-0.2684 0.018,-0.0639 0.0507,-0.115 0.0978,-0.1554 0.047,-0.0405 0.0999,-0.0606 0.158,-0.0618 0.0727,0.002 0.2074,0.03 0.4028,0.085 z m 4.7364,1.5684 0.8502,1.7092 c 0.0792,0.1593 0.146,0.2487 0.1986,0.2665 0.0896,0.0303 0.1713,-0.0635 0.2447,-0.2802 0.083,-0.2458 0.1265,-0.418 0.1311,-0.5156 0.005,-0.0985 -0.0264,-0.1849 -0.0938,-0.2578 -0.0543,-0.0595 -0.0886,-0.1145 -0.1015,-0.1656 -0.0132,-0.0513 -0.009,-0.1099 0.0136,-0.1769 0.0555,-0.1639 0.1902,-0.2351 0.4029,-0.2155 0.0876,0.007 0.2315,0.0448 0.4327,0.1128 0.2591,0.0877 0.4323,0.1662 0.5197,0.2348 0.1395,0.1084 0.183,0.2378 0.1312,0.3906 -0.0428,0.1269 -0.1391,0.2002 -0.2894,0.2218 -0.0603,0.007 -0.1031,0.0185 -0.1281,0.0312 -0.026,0.0134 -0.0516,0.037 -0.0789,0.0713 -0.0901,0.113 -0.1962,0.3488 -0.3196,0.7078 l -0.3227,0.9542 c -0.0493,0.1459 -0.1159,0.346 -0.2001,0.6003 -0.1144,0.3443 -0.2167,0.5858 -0.3058,0.7249 -0.1098,0.1744 -0.2259,0.2398 -0.3484,0.1995 -0.0523,-0.0188 -0.0949,-0.0466 -0.1247,-0.0857 -0.0294,-0.0377 -0.0736,-0.1184 -0.1325,-0.2395 l -1.0001,-2.0706 c -0.0694,-0.1449 -0.1395,-0.2298 -0.2098,-0.2536 -0.1045,-0.0353 -0.213,0.1117 -0.3245,0.4413 -0.0916,0.2708 -0.1404,0.4615 -0.1479,0.5702 -0.007,0.1078 0.0224,0.2002 0.0895,0.2742 0.0931,0.1038 0.1218,0.207 0.087,0.3099 -0.0919,0.2717 -0.3944,0.3208 -0.9074,0.1473 -0.231,-0.0782 -0.3992,-0.174 -0.5042,-0.2863 -0.1037,-0.113 -0.1348,-0.2326 -0.0918,-0.3595 0.0223,-0.0659 0.0515,-0.1117 0.0864,-0.1366 0.0349,-0.025 0.1045,-0.0515 0.208,-0.08 0.0994,-0.0276 0.1802,-0.1071 0.2447,-0.24 0.1142,-0.2421 0.2514,-0.5986 0.4112,-1.0712 0.1703,-0.5035 0.268,-0.879 0.2951,-1.1271 0.009,-0.0904 0.006,-0.1603 -0.009,-0.2112 -0.0161,-0.051 -0.0503,-0.1059 -0.1046,-0.1656 -0.0627,-0.069 -0.1022,-0.1292 -0.1191,-0.1805 -0.016,-0.051 -0.0141,-0.106 0.006,-0.165 0.0633,-0.1868 0.2447,-0.2569 0.5448,-0.2098 0.1012,0.0163 0.2718,0.0651 0.5124,0.1465 0.137,0.0463 0.2328,0.0932 0.287,0.1383 0.0543,0.045 0.11,0.1262 0.1671,0.2412 z m 2.6689,5.3928 -0.1784,-0.0804 c -0.1039,-0.0469 -0.2232,-0.0937 -0.3569,-0.1402 -0.0841,-0.0298 -0.1418,-0.0511 -0.173,-0.0653 -0.1107,-0.0498 -0.1882,-0.1195 -0.2311,-0.2095 -0.0432,-0.0888 -0.0437,-0.1805 -0.001,-0.2746 0.0296,-0.0654 0.0677,-0.1096 0.1146,-0.1323 0.0475,-0.0238 0.1111,-0.0298 0.1909,-0.0216 0.0741,0.0115 0.1319,5e-4 0.1747,-0.0311 0.0419,-0.032 0.0974,-0.1053 0.1651,-0.2217 0.0772,-0.1352 0.2127,-0.4039 0.4075,-0.8066 0.1939,-0.403 0.3824,-0.8051 0.5636,-1.2069 0.0711,-0.1577 0.1074,-0.2675 0.1101,-0.3299 0.002,-0.0618 -0.0293,-0.1266 -0.0946,-0.1942 -0.0919,-0.1005 -0.1108,-0.2096 -0.0574,-0.3279 0.0415,-0.0923 0.1129,-0.1469 0.2145,-0.1624 0.102,-0.0164 0.2228,0.007 0.3631,0.0701 0.0465,0.0209 0.1002,0.0463 0.1627,0.0768 0.1361,0.0684 0.2353,0.1166 0.2979,0.1447 0.2359,0.1064 0.5069,0.2182 0.8114,0.3347 0.0638,0.0254 0.1433,0.0588 0.238,0.1016 0.3779,0.1704 0.6545,0.3531 0.8302,0.5502 0.2611,0.2937 0.3962,0.6508 0.4054,1.0703 0.01,0.371 -0.0802,0.7666 -0.2697,1.1867 -0.0959,0.2126 -0.2187,0.4128 -0.37,0.6015 -0.1503,0.189 -0.307,0.3404 -0.4703,0.4543 -0.3332,0.2291 -0.6976,0.331 -1.0917,0.307 -0.2315,-0.0142 -0.4598,-0.0719 -0.6847,-0.1734 l -0.2953,-0.1459 -0.2531,-0.1245 c -0.1969,-0.0981 -0.371,-0.1813 -0.5223,-0.2495 z m 1.8969,-2.8189 -0.9834,2.1804 c -0.0532,0.1183 -0.069,0.2119 -0.0467,0.2821 0.0222,0.0701 0.0854,0.1286 0.1893,0.1755 0.4818,0.2174 0.9109,-0.0912 1.2869,-0.9247 0.2075,-0.4606 0.3127,-0.8423 0.3142,-1.1459 0.003,-0.3354 -0.1444,-0.5708 -0.4394,-0.7038 -0.0794,-0.0359 -0.1435,-0.0427 -0.1916,-0.0216 -0.0482,0.021 -0.0911,0.0734 -0.1293,0.158 z m 3.9912,0.9344 c 0.3084,0.1762 0.5325,0.3297 0.6729,0.4597 0.0648,0.0588 0.1066,0.1239 0.1236,0.1969 0.0179,0.0734 0.01,0.1403 -0.0249,0.2007 -0.0267,0.0467 -0.0717,0.0842 -0.1335,0.1121 -0.0922,0.0457 -0.147,0.0836 -0.1654,0.1157 -0.0371,0.065 -0.0513,0.1928 -0.0417,0.3854 0.006,0.1247 0.0343,0.2018 0.0867,0.2317 0.0329,0.0188 0.073,0.0235 0.1207,0.013 0.0469,-0.01 0.1163,-0.0356 0.207,-0.0785 0.1115,-0.053 0.1817,-0.1051 0.2116,-0.1573 0.0182,-0.032 0.0287,-0.0577 0.0309,-0.0783 0.002,-0.0206 -9e-4,-0.0733 -0.0107,-0.1591 -0.008,-0.0591 0.007,-0.1233 0.0478,-0.1938 0.1151,-0.2015 0.4138,-0.1656 0.8953,0.1094 0.2723,0.1555 0.4402,0.2708 0.5061,0.3461 0.0419,0.0483 0.0653,0.1065 0.0703,0.1762 0.006,0.0687 -0.008,0.1324 -0.0408,0.1892 -0.0418,0.0732 -0.0939,0.1177 -0.1548,0.1326 -0.0601,0.0156 -0.1447,0.005 -0.2536,-0.0306 -0.1012,-0.0324 -0.201,-0.0372 -0.3,-0.0172 -0.0995,0.0209 -0.299,0.088 -0.5978,0.2016 -0.3634,0.141 -0.6075,0.2578 -0.731,0.3524 -0.1243,0.0943 -0.2562,0.2654 -0.397,0.5118 -0.1186,0.2078 -0.222,0.4039 -0.3084,0.5889 -0.0543,0.1135 -0.0831,0.1979 -0.0847,0.2529 -0.002,0.0536 0.0201,0.122 0.0658,0.2028 0.0756,0.133 0.0842,0.2508 0.0261,0.3525 -0.1392,0.2436 -0.5243,0.185 -1.1565,-0.176 -0.2601,-0.1485 -0.4882,-0.3176 -0.6868,-0.5063 -0.1672,-0.1599 -0.211,-0.3112 -0.1289,-0.455 0.0633,-0.1108 0.1692,-0.156 0.3155,-0.1356 0.1099,0.0154 0.1923,0.002 0.246,-0.0416 0.1214,-0.0947 0.3127,-0.3718 0.5752,-0.8315 0.0816,-0.1428 0.1325,-0.2619 0.1531,-0.3558 0.0205,-0.0939 0.0235,-0.2282 0.0117,-0.4038 -0.0278,-0.3645 -0.0752,-0.7061 -0.1442,-1.0248 -0.029,-0.138 -0.0728,-0.2445 -0.1297,-0.3207 -0.0812,-0.1046 -0.1276,-0.1749 -0.1368,-0.2093 -0.0197,-0.0683 -0.009,-0.1375 0.0318,-0.2089 0.0685,-0.12 0.198,-0.1615 0.3863,-0.123 0.1891,0.0374 0.4699,0.1626 0.8428,0.3755 z m 7.424,4.8895 c 0.1598,0.1252 0.3097,0.2693 0.4493,0.4309 0.1157,0.1321 0.1848,0.2438 0.2075,0.3352 0.0227,0.0914 0.003,0.1765 -0.0593,0.2563 -0.039,0.0498 -0.0805,0.0802 -0.1244,0.0927 -0.044,0.0112 -0.1167,0.009 -0.2201,-0.006 -0.1209,-0.0156 -0.2132,0.005 -0.2762,0.061 -0.0639,0.0558 -0.2744,0.3022 -0.6324,0.7385 -0.3411,0.4268 -0.5463,0.6813 -0.6175,0.7648 -0.0706,0.0827 -0.1451,0.1598 -0.2227,0.2288 -0.2267,0.2055 -0.4558,0.3249 -0.686,0.3618 -0.1893,0.0298 -0.3898,0.0137 -0.5999,-0.049 -0.2107,-0.0633 -0.4048,-0.1643 -0.5838,-0.3044 -0.1577,-0.1234 -0.2986,-0.2713 -0.4208,-0.4432 -0.1214,-0.1714 -0.2086,-0.3442 -0.2612,-0.5179 -0.0437,-0.1441 -0.049,-0.2969 -0.0149,-0.4578 0.0334,-0.1599 0.1017,-0.3059 0.2051,-0.438 0.1268,-0.162 0.2767,-0.2602 0.4498,-0.2962 0.173,-0.036 0.3271,-0.001 0.4621,0.1046 0.1329,0.104 0.2109,0.2361 0.2335,0.3984 0.0218,0.1631 -0.0192,0.3118 -0.1233,0.4447 -0.0265,0.034 -0.0802,0.0845 -0.1588,0.1501 -0.0158,0.0144 -0.031,0.0308 -0.0466,0.0506 -0.0403,0.0516 -0.0574,0.1065 -0.0498,0.1646 0.007,0.0581 0.0382,0.109 0.0923,0.1513 0.0956,0.0749 0.2106,0.0859 0.3451,0.0345 0.1345,-0.0514 0.2646,-0.1573 0.3886,-0.316 l 0.1714,-0.2234 0.4625,-0.5983 c 0.2702,-0.3723 0.4272,-0.5923 0.4713,-0.6623 0.0436,-0.0691 0.0685,-0.134 0.0741,-0.1939 0.005,-0.0498 0.002,-0.0854 -0.007,-0.1085 -0.009,-0.0217 -0.0411,-0.0724 -0.0979,-0.1503 -0.0278,-0.0351 -0.0394,-0.0804 -0.0343,-0.1367 0.005,-0.0562 0.024,-0.1058 0.0571,-0.1481 0.0683,-0.0872 0.1541,-0.1338 0.2557,-0.1387 0.1023,-0.006 0.2339,0.0292 0.3966,0.1042 0.1806,0.0838 0.3526,0.189 0.5148,0.3158 z m 2.7285,2.2407 c 0.353,0.3036 0.5634,0.6833 0.629,1.1403 0.0431,0.3111 0.0119,0.6403 -0.093,0.987 -0.1069,0.3434 -0.2673,0.6394 -0.4827,0.8897 -0.3169,0.3686 -0.7071,0.6062 -1.1712,0.712 -0.3938,0.0911 -0.782,0.0647 -1.1673,-0.079 -0.2364,-0.0892 -0.4453,-0.2118 -0.6266,-0.3677 -0.2378,-0.2044 -0.4167,-0.4556 -0.5371,-0.7553 -0.1452,-0.3614 -0.1737,-0.7435 -0.0863,-1.1453 0.0842,-0.3895 0.2648,-0.7446 0.5399,-1.0644 0.3197,-0.3719 0.6938,-0.6205 1.1235,-0.7448 0.3832,-0.1114 0.7643,-0.1064 1.1451,0.0139 0.2565,0.0801 0.499,0.2177 0.7267,0.4136 z m -0.7736,0.5043 c -0.1153,-0.0992 -0.2569,-0.1193 -0.4249,-0.0607 -0.1277,0.0433 -0.243,0.1248 -0.3462,0.2448 -0.152,0.1768 -0.2957,0.4079 -0.4319,0.6941 -0.1361,0.2864 -0.2341,0.5609 -0.2917,0.8229 -0.0238,0.1131 -0.0234,0.2192 0,0.3185 0.024,0.0987 0.0674,0.1762 0.1321,0.2318 0.1041,0.0895 0.2269,0.1173 0.3672,0.0836 0.1404,-0.0351 0.2731,-0.1241 0.3982,-0.2696 0.1623,-0.1887 0.3109,-0.4156 0.4452,-0.6798 0.1342,-0.2657 0.2256,-0.5112 0.2739,-0.7395 0.0291,-0.1405 0.0334,-0.2677 0.0119,-0.3807 -0.0222,-0.1137 -0.067,-0.2023 -0.1338,-0.2654 z m 3.2561,1.8886 c 0.2459,0.2562 0.4174,0.4669 0.5152,0.6313 0.0455,0.0748 0.0671,0.1491 0.0628,0.2238 -0.004,0.0755 -0.0305,0.1373 -0.0807,0.1855 -0.0388,0.0372 -0.0925,0.0606 -0.1597,0.0698 -0.1014,0.0176 -0.1647,0.0385 -0.1914,0.064 -0.054,0.0519 -0.1039,0.1705 -0.1491,0.3579 -0.0299,0.1212 -0.0243,0.2032 0.0175,0.2467 0.0263,0.0275 0.0634,0.0432 0.1121,0.0467 0.0479,0.004 0.1216,-0.001 0.2208,-0.0167 0.1219,-0.0192 0.2041,-0.0493 0.2474,-0.0909 0.0266,-0.0255 0.0439,-0.0472 0.0518,-0.0664 0.008,-0.0192 0.02,-0.0706 0.0349,-0.1556 0.009,-0.059 0.0421,-0.1161 0.1006,-0.1723 0.1674,-0.1607 0.4438,-0.0417 0.8277,0.3584 0.2171,0.2261 0.3456,0.3843 0.3875,0.4752 0.0264,0.0581 0.0324,0.1205 0.0175,0.1888 -0.0141,0.0675 -0.0456,0.1247 -0.0926,0.1699 -0.0609,0.0585 -0.1235,0.0863 -0.1861,0.0835 -0.0621,-0.002 -0.1402,-0.0365 -0.2346,-0.1013 -0.0879,-0.0596 -0.1822,-0.0925 -0.2828,-0.1013 -0.1014,-0.008 -0.3117,-3e-4 -0.6304,0.0241 -0.3885,0.0322 -0.6557,0.0753 -0.8009,0.1311 -0.1458,0.0552 -0.3209,0.1819 -0.5255,0.3784 -0.1728,0.1658 -0.3274,0.3245 -0.4627,0.4775 -0.0841,0.0936 -0.1358,0.1662 -0.1528,0.2186 -0.0169,0.0509 -0.0153,0.1226 0.006,0.213 0.0349,0.149 0.01,0.2645 -0.0747,0.3456 -0.2024,0.1942 -0.5554,0.029 -1.0594,-0.4962 -0.2074,-0.2161 -0.3783,-0.4428 -0.5153,-0.68 -0.1152,-0.2007 -0.1143,-0.3583 0.005,-0.4729 0.092,-0.0883 0.2064,-0.1018 0.3411,-0.0407 0.101,0.0458 0.1839,0.0561 0.2476,0.0296 0.1433,-0.0564 0.4051,-0.2679 0.787,-0.6345 0.1187,-0.1139 0.2013,-0.2137 0.2476,-0.298 0.0462,-0.0843 0.0872,-0.2122 0.1255,-0.384 0.0765,-0.3575 0.1278,-0.6985 0.1519,-1.0236 0.0113,-0.1407 -7e-4,-0.2551 -0.0336,-0.3443 -0.0483,-0.1233 -0.0729,-0.2039 -0.072,-0.2395 5e-4,-0.0711 0.0303,-0.1344 0.0896,-0.1914 0.0997,-0.0956 0.2355,-0.0987 0.4055,-0.008 0.1706,0.0894 0.4045,0.2889 0.7019,0.5987 z m -60.1301,-9.941 c 0.3801,0 0.6883,0.3082 0.6883,0.6883 0,0.3802 -0.3082,0.6883 -0.6883,0.6883 -0.3801,0 -0.6883,-0.3081 -0.6883,-0.6883 0,-0.3801 0.3082,-0.6883 0.6883,-0.6883 z m 25.9174,-4.3418 c 0.3801,0 0.6883,0.3082 0.6883,0.6883 0,0.3802 -0.3082,0.6883 -0.6883,0.6883 -0.3802,0 -0.6883,-0.3081 -0.6883,-0.6883 0,-0.3801 0.3081,-0.6883 0.6883,-0.6883 z m 24.6201,8.7891 c 0.3802,0 0.6883,0.3082 0.6883,0.6883 0,0.3802 -0.3081,0.6884 -0.6883,0.6884 -0.3801,0 -0.6883,-0.3082 -0.6883,-0.6884 0,-0.3801 0.3082,-0.6883 0.6883,-0.6883 z m -85.0414,88.527 -0.1754,-0.9112 c 2.4389,-0.3831 3.8787,-0.617 4.3157,-0.7011 0.4661,-0.0897 1.1356,-0.2315 2.0117,-0.4261 0.88,-0.1951 1.5237,-0.332 1.9422,-0.4125 1.0646,-0.205 1.9276,-0.2114 2.5816,-0.018 0.6548,0.1976 1.2265,0.5966 1.7196,1.2006 0.4931,0.6041 0.8179,1.3224 0.9772,2.1502 0.1362,0.7073 0.139,1.4142 0.008,2.1168 -0.1351,0.7034 -0.3728,1.3272 -0.7151,1.8634 -0.2214,0.3531 -0.6068,0.7639 -1.1563,1.232 0.6717,0.8588 1.6424,2.0654 2.9177,3.6276 0.9353,1.1402 1.5304,1.8195 1.7922,2.0323 0.2609,0.2086 0.5261,0.3603 0.7949,0.4509 0.4121,0.1235 1.1309,0.1793 2.1565,0.1674 l 0.173,0.8986 c -1.2311,0.1507 -2.2303,0.2999 -2.9977,0.4475 -0.8076,0.1554 -1.7945,0.3885 -2.9605,0.6992 -1.3133,-2.1158 -2.9357,-4.5128 -4.8675,-7.1912 -0.4181,0.0631 -0.8576,0.1133 -1.3188,0.1503 l 1.0208,5.0669 c 0.1349,0.6212 0.2542,1.0037 0.3637,1.138 0.106,0.1348 0.2369,0.2218 0.3928,0.2608 0.1096,0.035 0.7751,0.0709 2.0003,0.1069 l 0.173,0.8986 c -1.6864,0.2382 -3.0343,0.4546 -4.0439,0.6488 -0.9949,0.1915 -2.3121,0.4881 -3.9518,0.8901 l -0.1729,-0.8986 c 1.17,-0.4884 1.8197,-0.8119 1.9466,-0.983 0.1277,-0.167 0.1749,-0.4565 0.1404,-0.8726 -0.0204,-0.2247 -0.406,-2.3077 -1.1585,-6.257 l -0.71,-3.6298 c -0.3282,-1.7056 -0.5517,-2.7282 -0.6704,-3.0678 -0.0921,-0.2411 -0.228,-0.4133 -0.4063,-0.5085 -0.1781,-0.0952 -0.7172,-0.1467 -1.6164,-0.1505 l -0.5062,-0.019 z m 6.9457,6.0017 c 0.3629,-0.0526 0.6288,-0.0951 0.8014,-0.1283 1.0021,-0.1929 1.6917,-0.6061 2.0648,-1.2387 0.3731,-0.6327 0.4534,-1.5024 0.2404,-2.6089 -0.2002,-1.0402 -0.5808,-1.7909 -1.1381,-2.2531 -0.5571,-0.4622 -1.223,-0.6188 -1.9976,-0.4697 -0.3157,0.0607 -0.7184,0.1641 -1.2118,0.3107 l 1.2409,6.388 z m 20.7608,2.9959 0.6717,0.837 c -0.9985,1.246 -1.9422,2.1817 -2.836,2.7992 -0.3881,0.2671 -0.9046,0.4439 -1.5498,0.5259 -1.3463,0.1712 -2.4349,-0.1516 -3.2582,-0.9651 -1.045,-1.0159 -1.6861,-2.4718 -1.926,-4.3588 -0.2502,-1.9668 0.0629,-3.6252 0.9346,-4.9787 0.8755,-1.3541 2.0731,-2.1299 3.5974,-2.3237 1.3907,-0.1769 2.471,0.1683 3.2376,1.0403 0.5056,0.5677 0.8744,1.5116 1.1089,2.8228 -0.3287,0.3193 -0.6272,0.6691 -0.8948,1.0533 -0.7683,0.0635 -1.5456,0.1453 -2.3392,0.2462 -1.031,0.131 -1.9856,0.2696 -2.8678,0.4159 0.0156,0.1816 0.0311,0.3335 0.0472,0.4595 0.1474,1.1599 0.511,2.1514 1.0941,2.9741 0.5791,0.819 1.3398,1.1707 2.278,1.0513 0.46,-0.0584 0.8864,-0.2024 1.2835,-0.428 0.3935,-0.2251 0.8678,-0.6142 1.4188,-1.1712 z m -6.2484,-4.1507 c 0.4121,-0.0183 0.7481,-0.0439 1.0114,-0.0774 0.623,-0.0792 1.3816,-0.2184 2.2721,-0.4171 -0.178,-1.0449 -0.4194,-1.7274 -0.7307,-2.0423 -0.3113,-0.3149 -0.6968,-0.441 -1.1603,-0.3821 -0.4525,0.0576 -0.812,0.3126 -1.078,0.7692 -0.2661,0.4566 -0.3713,1.1704 -0.3145,2.1497 z m 12.2263,-8.6817 -0.079,-0.9118 c 1.6338,-0.5456 3.0328,-1.2453 4.1971,-2.099 l 0.5629,0.3892 c -0.0136,1.0558 0.0125,2.2654 0.0787,3.6333 0.0657,1.3635 0.1715,2.8853 0.3164,4.5565 0.2599,2.9968 0.4507,5.1106 0.5729,6.3459 0.0576,0.5776 0.1558,0.9306 0.2915,1.0676 0.1353,0.133 0.365,0.1853 0.6853,0.1575 0.0745,-0.007 0.3461,-0.0342 0.8109,-0.0831 l 0.0746,0.861 c -0.8777,0.2207 -1.6232,0.4512 -2.2402,0.6918 -0.6168,0.2449 -1.276,0.5615 -1.9778,0.9498 l -0.5582,-0.2493 c 0.0369,-0.5262 0.0538,-1.0677 0.0505,-1.6245 -0.7659,0.8616 -1.4122,1.4578 -1.9381,1.7968 -0.3694,0.2403 -0.7774,0.382 -1.2243,0.4208 -0.8641,0.075 -1.6302,-0.2795 -2.2947,-1.0597 -0.8707,-0.9961 -1.3785,-2.3511 -1.5274,-4.0688 -0.0714,-0.8231 -0.0385,-1.6551 0.0984,-2.5005 0.1334,-0.8408 0.4015,-1.5998 0.801,-2.2721 0.4028,-0.6772 0.9604,-1.2571 1.6759,-1.7486 0.7153,-0.4915 1.4679,-0.7694 2.2539,-0.8375 0.175,-0.0153 0.3742,-0.0113 0.5977,0.0118 0.2193,0.0193 0.4669,0.0616 0.7345,0.1192 -0.0567,-0.9137 -0.1016,-1.5603 -0.1342,-1.936 -0.0764,-0.882 -0.1822,-1.4087 -0.3137,-1.5844 -0.132,-0.1799 -0.3449,-0.255 -0.6428,-0.2292 -0.2123,0.0184 -0.5029,0.0862 -0.8718,0.2033 z m 2.4653,8.9543 c -0.1468,-1.6926 -0.3455,-2.7724 -0.5999,-3.2393 -0.3339,-0.6047 -0.8082,-0.8825 -1.4227,-0.8292 -0.5179,0.0449 -0.9592,0.4064 -1.3207,1.084 -0.3616,0.6778 -0.4747,1.7975 -0.3399,3.3507 0.1321,1.5236 0.4779,2.6546 1.0336,3.393 0.3847,0.4982 0.8397,0.7266 1.3648,0.6811 0.622,-0.054 1.0454,-0.452 1.2658,-1.1984 0.152,-0.5405 0.1596,-1.6212 0.019,-3.2419 z m 10.802,-10.8591 -0.009,-0.9151 c 2.0419,0.0653 3.3769,0.095 3.9975,0.0892 0.8299,-0.008 2.0632,-0.0621 3.6959,-0.1623 l 0.009,0.915 c -0.9023,0.2585 -1.4164,0.4456 -1.5425,0.5612 -0.126,0.1156 -0.1918,0.2688 -0.19,0.4509 0.002,0.1737 0.0601,0.4231 0.1715,0.7525 l 3.0923,9.4777 1.9769,-6.3822 1.0536,-3.5985 c 0.0252,-0.1147 0.0391,-0.225 0.0382,-0.3224 -0.002,-0.1907 -0.0968,-0.3422 -0.2886,-0.459 -0.045,-0.0208 -0.5401,-0.1898 -1.4853,-0.5028 l -0.009,-0.9193 c 1.1859,0.0735 2.1096,0.1071 2.7751,0.1007 0.6056,-0.006 1.4911,-0.0565 2.6529,-0.1523 l 0.009,0.9151 c -0.7308,0.1976 -1.215,0.397 -1.4524,0.5985 -0.1373,0.1072 -0.2627,0.2821 -0.369,0.5161 -0.106,0.2382 -0.7938,2.2148 -2.0596,5.9298 -0.8836,2.6223 -1.9769,5.9925 -3.2836,10.1059 l -1.0318,0.01 -3.4633,-9.9657 c -1.3093,-3.631 -2.0573,-5.6194 -2.2325,-5.9567 -0.099,-0.1897 -0.2201,-0.3411 -0.3669,-0.454 -0.2035,-0.1676 -0.7663,-0.3741 -1.6884,-0.6322 z m 24.3529,13.6746 0.5166,0.9408 c -1.1994,1.0539 -2.2911,1.812 -3.2783,2.2653 -0.4285,0.1958 -0.9677,0.2803 -1.6175,0.2493 -1.3555,-0.0647 -2.3719,-0.5713 -3.0416,-1.5152 -0.8531,-1.1816 -1.2322,-2.7265 -1.1415,-4.6265 0.0946,-1.9805 0.6902,-3.5595 1.7833,-4.7415 1.0969,-1.1819 2.411,-1.7384 3.9458,-1.6651 1.4003,0.0669 2.4044,0.594 3.0082,1.5856 0.3996,0.6469 0.5992,1.6404 0.6029,2.9724 -0.379,0.2575 -0.7336,0.5503 -1.0638,0.8823 -0.7676,-0.0707 -1.5473,-0.1249 -2.3464,-0.1631 -1.0381,-0.0495 -2.0023,-0.0786 -2.8965,-0.0872 -0.0161,0.1815 -0.0272,0.3337 -0.0332,0.4606 -0.0558,1.168 0.1304,2.2075 0.5622,3.1189 0.4283,0.9068 1.1166,1.385 2.0614,1.4301 0.463,0.0221 0.9079,-0.0458 1.3382,-0.1991 0.4265,-0.1536 0.9611,-0.4546 1.6002,-0.9076 z m -5.4345,-5.1708 c 0.4091,0.0534 0.7444,0.0863 1.0096,0.099 0.6273,0.03 1.3985,0.0244 2.31,-0.017 0.006,-1.0599 -0.1137,-1.7739 -0.3658,-2.1381 -0.2521,-0.364 -0.6097,-0.555 -1.0766,-0.5773 -0.4555,-0.0217 -0.8537,0.1671 -1.195,0.5707 -0.3411,0.4036 -0.5684,1.0884 -0.6822,2.0627 z m 7.6215,-6.9983 0.0578,-0.8623 c 1.0866,-0.2243 1.9249,-0.4313 2.5115,-0.6297 0.5826,-0.1945 1.2196,-0.4744 1.9105,-0.8314 l 0.5042,0.4711 c -0.1716,1.0501 -0.3337,2.2917 -0.4861,3.7252 -0.1524,1.4334 -0.2881,3.0632 -0.4107,4.8893 -0.2638,3.9311 -0.4056,6.155 -0.4215,6.6719 -0.0162,0.5212 0.0291,0.8512 0.139,0.9988 0.1609,0.2272 0.6133,0.4657 1.3609,0.7154 l -0.058,0.8623 c -1.1394,-0.1614 -2.1698,-0.273 -3.0986,-0.3353 -0.9474,-0.0636 -1.9946,-0.0915 -3.1455,-0.0838 l 0.0579,-0.8623 c 0.827,-0.1526 1.3172,-0.3107 1.4744,-0.4743 0.1608,-0.1633 0.2724,-0.5421 0.3428,-1.1446 0.1035,-0.872 0.2817,-3.1911 0.5347,-6.9615 0.2332,-3.4747 0.3354,-5.3318 0.3065,-5.5714 -0.0379,-0.3847 -0.2787,-0.592 -0.7114,-0.621 -0.1977,-0.0133 -0.4872,0.001 -0.8684,0.0436 z m 7.0304,5.0996 0.0917,-0.8594 c 1.1694,0.2101 2.1761,0.3601 3.0199,0.4501 0.8587,0.0916 1.8595,0.1558 3.0023,0.1925 l -0.0917,0.8594 c -0.6156,0.0962 -0.9706,0.1819 -1.0688,0.2566 -0.1279,0.1057 -0.1989,0.243 -0.2169,0.4115 -0.0153,0.1432 -0.008,0.3229 0.0288,0.5399 l 1.0647,5.2432 2.1387,-4.9271 c 0.0714,-0.1755 0.114,-0.3286 0.128,-0.4592 0.0157,-0.1474 -0.0191,-0.2789 -0.1031,-0.4072 -0.0809,-0.1237 -0.3217,-0.2985 -0.7224,-0.5244 l 0.0917,-0.8594 c 0.8237,0.1731 1.4809,0.2859 1.9753,0.3386 0.5204,0.0555 1.142,0.0792 1.861,0.0707 l -0.0917,0.8593 c -0.6961,0.1815 -1.1629,0.4341 -1.4038,0.7535 -0.2408,0.3194 -1.0409,1.9681 -2.3996,4.9418 -0.7393,1.6083 -1.5429,3.2907 -2.4067,5.0433 l -0.9107,-0.0972 -1.6123,-6.665 -0.9523,-3.7955 c -0.1079,-0.2927 -0.2239,-0.5096 -0.3484,-0.6464 -0.1208,-0.1364 -0.4788,-0.3749 -1.0737,-0.7196 z m 19.3063,10.2207 0.4205,0.9873 c -1.2978,0.9298 -2.4593,1.5758 -3.4867,1.9289 -0.4459,0.1524 -0.9908,0.1829 -1.6343,0.0876 -1.3425,-0.1989 -2.3034,-0.8038 -2.8763,-1.8095 -0.7315,-1.2604 -0.9556,-2.8354 -0.6768,-4.717 0.2907,-1.9613 1.0401,-3.4735 2.2451,-4.5411 1.2087,-1.0672 2.5715,-1.4906 4.0915,-1.2654 1.3867,0.2054 2.3335,0.8297 2.8361,1.8763 0.3333,0.6833 0.4334,1.6917 0.3049,3.0175 -0.4027,0.2187 -0.7846,0.4747 -1.1461,0.7724 -0.7569,-0.1465 -1.5272,-0.2778 -2.3186,-0.395 -1.028,-0.1523 -1.9847,-0.2769 -2.8736,-0.3743 -0.034,0.1791 -0.0601,0.3294 -0.0787,0.4551 -0.1714,1.1566 -0.0893,2.2095 0.2499,3.1592 0.3362,0.9448 0.9737,1.4891 1.9093,1.6277 0.4586,0.0679 0.908,0.0445 1.3513,-0.0654 0.4397,-0.1105 1.0016,-0.3569 1.6825,-0.7443 z m -4.8947,-5.6846 c 0.4018,0.0937 0.7322,0.1598 0.9948,0.1987 0.6212,0.0921 1.3893,0.1631 2.3003,0.2124 0.1108,-1.0542 0.0629,-1.7766 -0.1518,-2.1639 -0.2147,-0.3872 -0.5517,-0.6128 -1.0139,-0.6812 -0.4512,-0.067 -0.8662,0.0815 -1.2457,0.4492 -0.3796,0.3678 -0.6737,1.0266 -0.8837,1.9848 z m 15.1067,-0.8359 0.1067,0.1974 c -0.3165,0.418 -0.6134,0.8528 -0.8876,1.309 -0.7425,-0.2377 -1.5519,-0.4626 -2.4287,-0.6744 l -0.3154,1.4406 -0.3569,1.657 -0.3581,1.6438 c -0.2979,1.5476 -0.3707,2.5388 -0.222,2.9729 0.1516,0.4391 0.4076,0.6911 0.771,0.7611 0.2827,0.0544 0.761,-0.0175 1.446,-0.2136 l 0.2234,0.9749 c -1.2254,0.5321 -2.0298,0.8346 -2.4148,0.9158 -0.5185,0.1029 -0.9958,0.1104 -1.4326,0.0263 -0.6645,-0.1279 -1.1504,-0.4716 -1.4584,-1.0271 -0.3045,-0.5546 -0.3674,-1.2959 -0.1873,-2.2319 l 0.5853,-2.8038 0.9812,-4.6431 -0.8653,-0.1924 c -0.0806,-0.0156 -0.3025,-0.0496 -0.6728,-0.1036 l 0.1746,-0.907 c 0.7401,-0.1465 1.4579,-0.4743 2.1552,-0.9916 0.6964,-0.513 1.455,-1.3292 2.2785,-2.4434 l 0.9435,0.1816 c -0.4393,1.3132 -0.7758,2.5083 -1.0097,3.5849 0.6172,0.1361 0.9938,0.2172 1.1296,0.2433 0.2643,0.0509 0.8679,0.1585 1.8146,0.3233 z" />
</svg>
