<?xml version="1.0" encoding="UTF-8"?>
<svg version="1.1" xmlns="http://www.w3.org/2000/svg" width="2000" height="1472">
<path d="M0 0 C1.20672678 -0.00066278 1.20672678 -0.00066278 2.43783188 -0.00133896 C26.13156766 -0.00816063 49.58975819 0.23159484 73.125 3.25 C74.53403478 3.41918 75.94321971 3.5871134 77.35253906 3.75390625 C159.92240932 13.62652293 244.68933425 41.8118295 310.125 94.25 C311.13820313 95.05050781 312.15140625 95.85101563 313.1953125 96.67578125 C324.03994766 105.37311686 333.95028382 114.97216458 343.8125 124.75 C344.69147949 125.61592773 345.57045898 126.48185547 346.47607422 127.37402344 C352.4607815 133.35085759 357.88873289 139.61108296 363.125 146.25 C363.70048584 146.97155273 364.27597168 147.69310547 364.86889648 148.43652344 C372.95040314 158.6335234 380.31267201 169.16744908 387.125 180.25 C387.54346191 180.92998047 387.96192383 181.60996094 388.39306641 182.31054688 C413.40940381 223.26589286 429.82767861 267.61076369 436.125 315.25 C436.30289062 316.57354492 436.30289062 316.57354492 436.484375 317.92382812 C440.10294665 346.16161047 438.76038351 375.10050159 435.125 403.25 C434.99109863 404.29091797 434.85719727 405.33183594 434.71923828 406.40429688 C429.50385667 445.06765922 417.24052831 483.79704896 401.125 519.25 C400.43736572 520.7654541 400.43736572 520.7654541 399.73583984 522.31152344 C387.06410667 549.97063646 371.94225717 576.28739907 353.125 600.25 C352.485625 601.06984375 351.84625 601.8896875 351.1875 602.734375 C338.98597517 618.18307982 325.83130163 632.62443686 311.9375 646.5625 C311.46396088 647.03871796 310.99042175 647.51493591 310.50253296 648.00558472 C304.88584877 653.64633885 299.18171941 659.08584976 293.125 664.25 C292.07652568 665.17527421 291.0295736 666.10227709 289.984375 667.03125 C280.1312461 675.68828869 269.69111977 683.49037691 259.125 691.25 C257.97161133 692.10343994 257.97161133 692.10343994 256.79492188 692.97412109 C191.30528674 741.40857106 116.23137466 776.44655361 -26.88549805 818.82714844 C-27.55278931 818.9843486 -28.22008057 819.14154877 -28.90759277 819.30351257 C-30.7054253 819.72599062 -32.50440818 820.14356494 -34.3034668 820.56079102 C-36.78891319 820.9972642 -36.78891319 820.9972642 -37.875 822.25 C1.38354094 964.46112555 1.38354094 964.46112555 62.125 1129.25 C62.39209778 1129.85511414 62.65919556 1130.46022827 62.93438721 1131.0836792 C84.88571494 1180.78934215 108.92900965 1231.29776275 145.87109375 1271.7734375 C147.3992196 1273.45252205 148.91185858 1275.14580823 150.41015625 1276.8515625 C155.02494806 1282.09168631 159.72436411 1286.82970644 165.125 1291.25 C165.65367676 1291.69102051 166.18235352 1292.13204102 166.72705078 1292.58642578 C192.51742997 1314.06777762 223.30653827 1328.9642235 257.62890625 1325.94140625 C290.35419912 1322.08534984 314.61522349 1306.4059832 338.125 1284.25 C339.22328125 1283.21552734 339.22328125 1283.21552734 340.34375 1282.16015625 C344.86338077 1277.7750383 348.84890441 1273.06034151 352.78515625 1268.1484375 C355.11739701 1265.25941806 357.52287046 1262.4452873 359.9375 1259.625 C375.02910523 1241.49638443 387.06825739 1221.02237088 398.125 1200.25 C398.55248535 1199.4470752 398.9799707 1198.64415039 399.42041016 1197.81689453 C415.99296864 1166.37262925 427.99741733 1132.57938379 440.85687256 1099.51013184 C442.08392858 1096.35558738 443.31244567 1093.20161639 444.54150391 1090.04785156 C472.67926936 1017.8333403 500.08014573 945.32934635 526.88598633 872.61022949 C528.16079167 869.15293229 529.43668416 865.69603804 530.71289062 862.23925781 C539.27694468 839.04195946 547.82478165 815.83911551 556.28710938 792.60449219 C581.19104708 724.23427221 606.27082858 655.74238033 636.61132812 589.55371094 C638.11984286 586.26125587 639.61480318 582.96286579 641.109375 579.6640625 C653.81510047 551.7940954 667.28824195 524.1640253 682.72070312 497.69580078 C684.57942859 494.45854214 686.34710821 491.17576722 688.11572266 487.88867188 C711.16125522 445.15185123 739.52173984 402.52700032 772.7109375 366.875 C774.58835136 364.83354027 776.39687812 362.76616821 778.19921875 360.66015625 C782.59155575 355.62397211 787.30781839 350.91698069 792.0402832 346.2043457 C793.55991668 344.6900742 795.07412517 343.1705257 796.58789062 341.65039062 C801.92608736 336.30783137 807.33627805 331.10777134 813.125 326.25 C813.72723389 325.74106201 814.32946777 325.23212402 814.94995117 324.70776367 C845.73627985 298.90891092 880.11089406 277.59515046 918.125 264.25 C918.92244629 263.96721191 919.71989258 263.68442383 920.54150391 263.39306641 C956.55148125 250.81418683 999.5120452 241.07753684 1036.91796875 251.64453125 C1052.41495068 255.79331951 1066.2810295 256.5148143 1082.25 255.6875 C1084.45509216 255.58785379 1086.66025511 255.48976448 1088.86547852 255.39306641 C1096.62030523 255.04407542 1104.37270879 254.65065199 1112.125 254.25 C1113.27503887 254.19061375 1113.27503887 254.19061375 1114.44831085 254.13002777 C1119.45766282 253.87112525 1124.46694221 253.61084098 1129.47620392 253.35019875 C1132.09094195 253.2143809 1134.70571379 253.07923174 1137.32049561 252.94425964 C1139.07483092 252.85358128 1140.82916441 252.76286773 1142.58349609 252.67211914 C1143.45365356 252.62713004 1144.32381104 252.58214094 1145.22033691 252.53578854 C1150.36065184 252.268872 1155.50034305 251.99236801 1160.63974762 251.70849133 C1176.34220981 250.84437233 1192.02505422 250.07846769 1207.75390625 250.0078125 C1208.95732162 249.99813446 1210.160737 249.98845642 1211.40061951 249.97848511 C1212.49890579 249.98187897 1213.59719208 249.98527283 1214.72875977 249.98876953 C1216.15636375 249.99095993 1216.15636375 249.99095993 1217.61280823 249.99319458 C1220.23029341 250.26076348 1221.87638661 250.91972156 1224.125 252.25 C1223.125 254.25 1223.125 254.25 1220.22705078 255.328125 C1218.92707895 255.72625316 1217.62459923 256.11624367 1216.3203125 256.5 C1214.86852251 256.9423866 1213.41678316 257.3849394 1211.96508789 257.82763672 C1211.19665558 258.0590033 1210.42822327 258.29036987 1209.63650513 258.52874756 C1158.30703852 274.04160051 1110.8152611 296.57398726 1068.125 329.25 C1067.45968262 329.75692383 1066.79436523 330.26384766 1066.10888672 330.78613281 C1058.47561484 336.62094931 1051.20158284 342.7465207 1044.125 349.25 C1042.83717819 350.37939929 1041.54564578 351.504585 1040.25 352.625 C1028.20210005 363.1518224 1016.21034436 374.02864793 1005.84765625 386.25 C1003.75127721 388.68389131 1001.5610262 391.02134425 999.375 393.375 C994.62946141 398.57932178 990.27860592 404.01987251 985.97265625 409.58984375 C984.07334006 412.0455054 982.1448687 414.47244583 980.18359375 416.87890625 C928.20562192 480.67314696 890.88606064 557.20143186 858.125 632.25 C857.75141357 633.10501099 857.37782715 633.96002197 856.99291992 634.84094238 C831.060974 694.21145014 806.92970711 754.33230696 782.69276428 814.40925598 C770.59508691 844.3935627 758.41063166 874.34218882 746.125 904.25 C745.60289948 905.52139832 745.60289948 905.52139832 745.07025146 906.81848145 C678.01708994 1070.04966774 678.01708994 1070.04966774 645.65087891 1127.53076172 C643.99483627 1130.48196218 642.36172889 1133.44519033 640.73046875 1136.41015625 C619.63831378 1174.61994614 595.25655263 1210.66989924 567.61328125 1244.42529297 C566.30631341 1246.02770072 565.01152979 1247.64003018 563.71875 1249.25390625 C558.82267177 1255.34739492 553.653362 1261.11536161 548.3125 1266.81640625 C545.81963044 1269.47855717 543.39456764 1272.19508866 540.97265625 1274.921875 C536.17041698 1280.26870329 531.1495917 1285.37746702 526.05883789 1290.4465332 C524.55693075 1291.94304925 523.06048938 1293.444883 521.56445312 1294.94726562 C516.25662768 1300.2591385 510.84682949 1305.3824954 505.125 1310.25 C503.93324372 1311.29499385 502.74312074 1312.34185352 501.5546875 1313.390625 C430.79186519 1375.43250347 344.29896112 1409.56873007 249.875 1409.4375 C248.99794403 1409.43656342 248.12088806 1409.43562683 247.21725464 1409.43466187 C155.7272906 1409.22412553 69.33112763 1379.0040884 -1.875 1321.25 C-2.83664062 1320.48171875 -3.79828125 1319.7134375 -4.7890625 1318.921875 C-10.39805739 1314.40307911 -15.78361751 1309.69211695 -21.07421875 1304.8046875 C-22.52387119 1303.48241038 -23.97746731 1302.16323194 -25.47485352 1300.89526367 C-32.16122966 1295.21592046 -38.2954982 1288.98013028 -44.48413086 1282.77124023 C-46.4329687 1280.81704376 -48.38709272 1278.86824853 -50.34179688 1276.91992188 C-56.39901016 1270.86628502 -62.35905853 1264.80795584 -67.875 1258.25 C-68.91942576 1257.05774582 -69.96631731 1255.86764733 -71.015625 1254.6796875 C-77.7290047 1247.02142227 -84.18044245 1239.21998319 -90.39892578 1231.15576172 C-91.99371479 1229.09672715 -93.60312291 1227.0497111 -95.21484375 1225.00390625 C-117.30057254 1196.92083939 -136.94960266 1167.14648661 -154.875 1136.25 C-155.40963867 1135.33089844 -155.94427734 1134.41179687 -156.49511719 1133.46484375 C-190.70610284 1074.40941609 -218.23506305 1012.0402555 -243.33374023 948.65441895 C-246.91745178 939.60835662 -250.54024634 930.57787219 -254.15631104 921.54470825 C-256.09466386 916.70202975 -258.03166945 911.85881252 -259.96875 907.015625 C-261.43669422 903.34497453 -261.43669422 903.34497453 -262.9206543 899.68078613 C-263.59846404 897.95435668 -264.23089298 896.20980578 -264.83129883 894.45495605 C-265.15316162 893.54652954 -265.47502441 892.63810303 -265.80664062 891.70214844 C-266.08463501 890.87374451 -266.36262939 890.04534058 -266.64904785 889.1918335 C-267.73007592 887.02012577 -267.73007592 887.02012577 -270.22096252 886.49307251 C-271.09679489 886.41285858 -271.97262726 886.33264465 -272.875 886.25 C-273.61338608 886.17939362 -274.35177216 886.10878723 -275.11253357 886.03604126 C-275.87002396 885.99401581 -276.62751434 885.95199036 -277.40795898 885.90869141 C-278.27754745 885.85838776 -279.14713593 885.80808411 -280.04307556 885.7562561 C-280.97632156 885.70520721 -281.90956757 885.65415833 -282.87109375 885.6015625 C-284.89650113 885.48205446 -286.92189118 885.36225245 -288.94726562 885.2421875 C-292.10113668 885.05896099 -295.25508859 884.87818625 -298.40942383 884.703125 C-309.56671075 884.07829563 -320.65819728 883.30030304 -331.73828125 881.81640625 C-333.03468788 881.64517746 -333.03468788 881.64517746 -334.35728455 881.4704895 C-359.55737049 877.87978905 -382.45704773 867.61025524 -401.875 851.25 C-403.03515625 850.29287109 -403.03515625 850.29287109 -404.21875 849.31640625 C-422.62431003 833.6527704 -434.47024508 810.08512585 -437.875 786.25 C-438.80776067 769.73691967 -438.77222154 753.15841256 -433.875 737.25 C-433.56949219 736.24404785 -433.56949219 736.24404785 -433.2578125 735.21777344 C-423.09451105 702.98693318 -400.21230752 674.83171334 -373.875 654.25 C-372.52341797 653.17298828 -372.52341797 653.17298828 -371.14453125 652.07421875 C-357.82767907 641.73299423 -343.16972145 633.2980265 -327.875 626.25 C-327.16327637 625.9190332 -326.45155273 625.58806641 -325.71826172 625.24707031 C-286.83942348 607.39236323 -240.06536971 600.2162779 -197.875 609.25 C-196.9787793 609.43804199 -196.08255859 609.62608398 -195.15917969 609.81982422 C-163.08893484 616.79185773 -134.45212038 631.4770106 -110.875 654.25 C-109.96105469 655.10078125 -109.04710937 655.9515625 -108.10546875 656.828125 C-88.51505545 675.54972169 -76.48576353 699.65652896 -65.875 724.25 C-62.59440532 722.97301627 -59.41999085 721.58911882 -56.26611328 720.02612305 C-55.37973175 719.58773605 -54.49335022 719.14934906 -53.58010864 718.69767761 C-52.62812592 718.22381119 -51.67614319 717.74994476 -50.6953125 717.26171875 C-49.69152557 716.76267532 -48.68773865 716.2636319 -47.65353394 715.74946594 C-45.51959682 714.68722054 -43.3862394 713.62380993 -41.25341797 712.55932617 C-38.07675837 710.97576399 -34.89592645 709.40082519 -31.71484375 707.82617188 C-12.61121933 698.32543241 6.22143737 688.33381515 23.875 676.3125 C25.01111885 675.54597712 26.14735203 674.77962366 27.28369141 674.01342773 C40.75283491 664.89486702 53.91547171 655.44805534 66.19921875 644.7734375 C69.06333734 642.30318301 71.98665224 639.92802228 74.9375 637.5625 C78.95504825 634.2960586 82.6308765 630.85789251 86.234375 627.14453125 C88.10743472 625.26760157 90.04885304 623.53678431 92.0625 621.8125 C98.64933223 616.12974278 104.67163378 609.92778304 110.328125 603.32421875 C112.2996243 601.04842282 114.33634395 598.84077333 116.375 596.625 C121.95866058 590.41988648 127.0675843 583.88314934 132.125 577.25 C132.66817871 576.54198242 133.21135742 575.83396484 133.77099609 575.10449219 C143.04712929 562.96417733 151.36841877 550.41088367 159.125 537.25 C159.78145508 536.13987549 159.78145508 536.13987549 160.45117188 535.00732422 C195.58475474 475.05825049 212.46030008 407.16553943 217.125 338.25 C217.18284668 337.47172852 217.24069336 336.69345703 217.30029297 335.89160156 C222.32359398 267.89071373 213.87652578 193.40932586 168.78125 139.4453125 C166.61569508 136.98944768 164.39407662 134.61044883 162.125 132.25 C161.68220703 131.78142578 161.23941406 131.31285156 160.78320312 130.83007812 C131.04958247 99.46498308 89.6575824 82.10648477 47.125 77.25 C46.17625 77.13785156 45.2275 77.02570313 44.25 76.91015625 C-16.42774179 71.01989674 -76.51943002 88.9760579 -124.3125 126.4375 C-125.84276182 127.69696423 -127.36405648 128.96742405 -128.875 130.25 C-129.95974609 131.16845703 -129.95974609 131.16845703 -131.06640625 132.10546875 C-144.59084654 143.9364935 -157.3067569 156.70037987 -167.875 171.25 C-168.34566895 171.88164062 -168.81633789 172.51328125 -169.30126953 173.1640625 C-188.46515643 198.89247927 -202.46586718 227.98808631 -212.875 258.25 C-213.29120605 259.45221191 -213.70741211 260.65442383 -214.13623047 261.89306641 C-221.46673147 283.20064396 -227.67796057 304.82515998 -233.8125 326.5 C-255.00623635 401.36858252 -280.28805241 475.4077862 -320.875 542.25 C-321.42929687 543.17135742 -321.98359375 544.09271484 -322.5546875 545.04199219 C-329.84256641 557.14141087 -337.52545698 568.85682595 -345.875 580.25 C-346.65488281 581.31476562 -347.43476563 582.37953125 -348.23828125 583.4765625 C-350.42541726 586.42123229 -352.64041639 589.34118858 -354.875 592.25 C-355.29072266 592.79188965 -355.70644531 593.3337793 -356.13476562 593.89208984 C-369.75564838 611.59419266 -384.61423084 628.05027864 -400.34533691 643.89556885 C-401.38959955 644.94787782 -402.43237794 646.00166221 -403.47351074 647.05706787 C-410.26630504 653.93306278 -417.2690612 660.2614738 -424.875 666.25 C-425.9590302 667.13065331 -427.04250361 668.01199327 -428.125 668.89453125 C-459.79992859 693.8655332 -502.44893752 714.79699594 -543.875 710.25 C-548.59951819 709.47963744 -553.29527374 708.58544872 -557.99432373 707.67425537 C-574.57103657 704.46760046 -590.35347936 703.53440336 -607.24432373 704.15637207 C-610.16670786 704.26038212 -613.08933162 704.35130084 -616.01220703 704.44042969 C-636.73167792 705.07557724 -657.44721795 705.82466254 -678.15234375 706.828125 C-696.29347258 707.70564813 -714.39723053 708.44734705 -732.5625 708.5 C-733.38816467 708.50517639 -734.21382935 708.51035278 -735.06451416 708.51568604 C-737.35960081 708.52722205 -739.6541303 708.52436389 -741.94921875 708.515625 C-743.24432373 708.51336914 -744.53942871 708.51111328 -745.8737793 708.50878906 C-748.875 708.25 -748.875 708.25 -750.875 706.25 C-740.43721682 700.04473631 -729.98405827 693.87067814 -719.44824219 687.83300781 C-705.45370503 679.81232194 -691.63483248 671.53272953 -677.88720703 663.09765625 C-675.31210463 661.51811541 -672.7329336 659.94554641 -670.15234375 658.375 C-654.51546164 648.80276799 -639.88669971 638.06580342 -625.875 626.25 C-625.13967545 625.63694504 -625.13967545 625.63694504 -624.38949585 625.01150513 C-615.80074963 617.84332825 -607.65836756 610.35266105 -599.77758789 602.41333008 C-598.05251523 600.67745269 -596.31688009 598.9526491 -594.58007812 597.22851562 C-587.88508355 590.54142211 -581.76034273 583.66730244 -575.875 576.25 C-574.94041189 575.14800947 -573.9990346 574.05168788 -573.046875 572.96484375 C-522.41256086 514.89871899 -493.91707554 441.10341648 -464.93682861 370.82476807 C-415.60779698 251.20959307 -415.60779698 251.20959307 -387.875 205.25 C-386.8954376 203.60700671 -385.91625181 201.9637888 -384.9375 200.3203125 C-370.32861915 175.94142221 -353.34598847 152.57074862 -334.0703125 131.65625 C-332.84323677 130.3112702 -331.62460073 128.95799527 -330.43945312 127.57592773 C-325.70895121 122.0623738 -320.68836609 116.8771832 -315.55175781 111.74145508 C-314.13580053 110.32331716 -312.72801711 108.89703335 -311.3203125 107.47070312 C-305.14931416 101.28681273 -298.69539968 95.70015054 -291.875 90.25 C-290.77332906 89.31503519 -289.67698196 88.37369882 -288.58984375 87.421875 C-270.71118678 71.83148496 -250.69923504 58.64058911 -229.87109375 47.33837891 C-227.88438804 46.25511887 -225.91086794 45.1503017 -223.9375 44.04296875 C-171.3308268 14.89948588 -111.99812617 5.79781531 -52.875 1.25 C-51.8438205 1.16727844 -51.8438205 1.16727844 -50.79180908 1.08288574 C-33.90761948 -0.23130595 -16.92447778 0.00425645 0 0 Z M-378.875 726.25 C-382.26982232 741.92074233 -381.53219955 756.30884213 -372.875 770.25 C-363.77703899 783.0709118 -349.31211582 789.74281905 -334.22265625 792.75390625 C-318.18998653 795.03741056 -318.18998653 795.03741056 -302.875 792.25 C-303.43936265 786.72214015 -304.84851065 782.10993233 -307 777 C-307.46913818 775.88020752 -307.46913818 775.88020752 -307.94775391 774.73779297 C-317.07444532 753.55197446 -332.60663674 737.98638922 -353.875 729.25 C-362.20462648 726.25213926 -370.07833294 725.86691934 -378.875 726.25 Z " fill="#000000" transform="translate(763.875,36.75)"/>
</svg>
