<?xml version="1.0" encoding="UTF-8" standalone="no"?>
<svg
   xmlns:dc="http://purl.org/dc/elements/1.1/"
   xmlns:cc="http://creativecommons.org/ns#"
   xmlns:rdf="http://www.w3.org/1999/02/22-rdf-syntax-ns#"
   xmlns:svg="http://www.w3.org/2000/svg"
   xmlns="http://www.w3.org/2000/svg"
   width="259.84384mm"
   height="112.0294mm"
   viewBox="0 0 259.84384 112.0294"
   version="1.1"
   id="svg8">
  <defs
     id="defs2" />
  <metadata
     id="metadata5">
    <rdf:RDF>
      <cc:Work
         rdf:about="">
        <dc:format>image/svg+xml</dc:format>
        <dc:type
           rdf:resource="http://purl.org/dc/dcmitype/StillImage" />
        <dc:title></dc:title>
      </cc:Work>
    </rdf:RDF>
  </metadata>
  <g
     id="layer1"
     transform="translate(-158.20223,-8.1082758)">
    <path
       id="path1043"
       style="fill:#f4da44;fill-opacity:1;stroke:none;stroke-width:0.999999px;stroke-linecap:butt;stroke-linejoin:miter;stroke-opacity:1"
       d="m 703.69336,3.2890625 c -4.8954,0.056945 -10.11452,3.3992083 -14.91406,14.3593755 -6.39939,14.613552 -12.05357,42.768156 -13.63086,67.828124 -1.5773,25.059968 0.92278,47.023788 3.05078,72.158208 1.30384,15.40002 2.4695,31.95235 3.75781,44.9414 -0.4665,1.15413 -0.9283,2.29869 -1.53515,3.875 -3.24097,8.41816 -8.79785,23.40153 -14.10938,32.94531 -5.31153,9.54379 -10.42841,13.68942 -14.36328,15.28907 -3.93487,1.59964 -6.71297,0.6729 -8.98633,-5.15625 -1.54922,-3.97239 -2.84943,-10.23978 -3.54297,-17.21485 0.422,-0.58938 0.53746,-0.73662 1.22656,-1.70507 3.11458,-4.37724 9.34534,-13.13237 13.72266,-20.96094 4.37732,-7.82857 6.90243,-14.73106 7.11328,-20.07617 0.21086,-5.34512 -1.89377,-9.13324 -5.68164,-11.70118 -3.78786,-2.56793 -9.26041,-3.91356 -14.18555,-2.39843 -4.92513,1.51512 -9.30108,5.89278 -12.5,12.56445 -3.19891,6.67167 -5.22039,15.63551 -6.23046,24.28516 -0.50801,4.35027 -0.75876,8.62097 -0.71289,12.94531 -2.34009,0.73399 -4.91084,1.49264 -7.11524,1.4707 -4.16664,-0.0415 -6.9432,-2.90378 -9.38476,-9.04883 -2.4416,-6.14504 -4.54621,-15.57258 -5.17774,-26.72656 -0.2704,-4.77579 1.13326,-22.7199 0.80274,-28.82227 -0.11786,-2.17583 0.0575,-8.11034 -3.45508,-10.99609 -1.55536,-1.27783 -6.59832,-1.63426 -8,-1.35351 -4.4412,0.88957 -6.71249,12.6723 -8.41407,19.87304 -3.45141,14.60568 -8.08139,40.5328 -10.94335,53.95899 -2.862,13.42618 -3.95685,14.35153 -4.88282,11.19531 -0.92596,-3.15622 -1.68358,-10.39573 -3.36718,-30.38867 -1.68364,-19.99294 -4.29431,-52.73646 -7.99805,-75.00196 -3.70374,-22.26549 -8.50042,-34.05197 -13.84571,-44.027339 -5.34525,-9.975372 -11.23812,-18.139332 -21.33984,-20.539063 -1.89407,-0.449949 -3.93668,-0.697397 -6.07617,-0.734375 -9.27114,-0.160236 -20.37183,3.626021 -29.19531,11.970703 -10.85968,10.270379 -18.26665,27.444184 -20.45508,44.996094 -2.18844,17.55191 0.84073,35.48028 4.16601,48.19141 3.32529,12.71112 6.9459,20.20463 11.36524,22.39257 4.41934,2.18794 9.63717,-0.92829 11.06836,-4.75781 1.43118,-3.82952 -0.92529,-8.37406 -4.08203,-14.22461 -3.15675,-5.85054 -7.11257,-13.00607 -8.96485,-22.09765 -1.85228,-9.09159 -1.60007,-20.11834 1.55664,-30.38868 3.15672,-10.27033 9.21757,-19.7835 14.98438,-25.044918 5.76681,-5.261417 11.23727,-6.271005 16.24609,-4.628906 5.00883,1.6421 9.55459,5.936004 13.55274,17.847654 3.99814,11.91166 7.45117,31.44052 11.66015,62.83985 4.20899,31.39932 9.17448,74.66601 12.58399,98.23632 3.4095,23.57032 5.26158,27.44339 8.16601,29.37891 2.90444,1.93552 6.8616,1.93533 10.77539,-4.79883 3.9138,-6.73415 7.78465,-20.20332 11.78321,-33.96679 3.23957,-11.15095 6.56839,-22.54704 9.99609,-34.84571 2.81257,7.38805 8.27611,10.95572 14.25,12.83399 6.69226,2.10413 14.01483,2.10375 18.56055,2.01953 0.97287,-0.018 1.76073,-0.0469 2.49804,-0.0879 1.41729,8.60426 4.01615,17.63595 7.89844,23.63672 4.12528,6.37634 9.68081,9.32249 14.96289,10.24804 5.28208,0.92556 10.29014,-0.1685 15.65625,-3.74609 5.36611,-3.57759 11.09127,-9.63803 16.39453,-16.89844 3.53755,-4.84305 6.88277,-10.22399 9.4961,-16.29687 3.21596,5.0804 7.93717,11.97826 12.9375,15.85547 6.18737,4.79764 12.66905,4.79823 17.92968,1.2207 5.26066,-3.57754 9.30095,-10.73255 12.58399,-20.83399 3.28304,-10.10143 5.80833,-23.14972 7.87109,-29.96875 2.06277,-6.81902 3.662,-7.40864 6.14258,-5.24609 2.48058,2.16255 5.68689,6.84623 8.16992,13.32813 2.48304,6.48189 4.16575,14.64757 6.60742,19.74023 2.4417,5.09266 5.64073,7.11345 8.79688,6.35547 3.15615,-0.75798 6.26937,-4.29334 8.87891,-11.40625 2.60953,-7.11292 4.71508,-17.80399 5.85156,-24.875 1.13647,-7.07101 1.30502,-10.52228 1.59961,-12.54297 0.29459,-2.02069 0.71428,-2.6097 1.55664,-2.23047 0.84235,0.37923 2.10536,1.72625 3.41016,3.11524 1.30477,1.38898 2.65307,2.82014 5.68359,3.53515 3.03052,0.71501 7.74329,0.71384 12.07812,-0.92773 0.10716,-0.0406 0.20976,-0.0942 0.31641,-0.13672 1.2759,8.8185 4.10141,17.10433 8.26562,22.54687 4.55406,5.95206 10.68512,8.51279 16.22071,9.46485 5.53558,0.95206 10.47582,0.29711 15.80273,-5.47657 5.32691,-5.77367 11.04154,-16.6663 14.88086,-26.90429 2.00128,-5.33663 3.48268,-10.48562 4.5957,-15.20508 0.0782,0.25674 0.15199,0.51556 0.23243,0.77148 3.70418,11.78529 9.76473,22.64375 17.59375,30.64063 7.82901,7.99687 17.42493,13.131 27.94726,14.89844 10.52234,1.76743 21.97218,0.16917 32.78906,-3.70313 10.81689,-3.87229 21.00233,-10.01709 29.33594,-20.45508 8.33362,-10.43798 14.81418,-25.16981 17.80274,-38.34375 2.98855,-13.17393 2.48354,-24.79042 -1.09375,-35.98632 -3.57729,-11.19591 -10.2277,-21.97148 -19.06641,-28.117192 -8.8387,-6.145708 -19.86621,-7.660252 -28.53711,-7.113281 -8.6709,0.54697 -14.98339,3.157257 -19.44531,7.619141 -4.46192,4.461882 -7.07206,10.774632 -6.94531,15.994142 0.12674,5.2195 2.99001,9.34435 6.35742,12.16406 3.36741,2.81971 7.23964,4.3341 11.11133,3.11328 3.87168,-1.22082 7.74355,-5.17676 10.52148,-8.12305 2.77793,-2.94628 4.46022,-4.88303 7.44922,-4.5039 2.989,0.37912 7.28239,3.07398 11.1543,9.80859 3.8719,6.73461 7.3228,17.50975 7.61718,28.53711 0.29439,11.02736 -2.5666,22.30668 -11.31445,31.87696 -8.74785,9.57027 -23.38247,17.4303 -35.69922,19.99218 -12.31675,2.56188 -22.31547,-0.17597 -29.625,-5.91601 -7.30952,-5.74004 -11.92885,-14.48202 -14.89062,-22.22071 -2.96178,-7.73868 -4.26506,-14.47232 -4.4336,-21.48046 -0.05,-2.07986 0.008,-4.19269 0.1211,-6.36524 2.20007,-1.06126 4.29363,-2.31016 6.15039,-3.75976 4.7979,-3.74581 8.03875,-8.79617 8.33398,-12.39454 0.29523,-3.59837 -2.3572,-5.74531 -7.21875,-6.29296 -1.66571,-0.18765 -3.59347,-0.17866 -5.54687,-0.0762 0.48307,-8.0166 0.78914,-16.72267 0.875,-23.64062 0.10526,-8.48115 -0.10562,-14.204506 -1.76758,-17.929689 -1.66196,-3.725184 -4.77609,-5.451535 -6.90234,-4.441407 -2.12626,1.010129 -3.26278,4.756673 -4.5254,13.40625 -1.26261,8.649576 -2.653,22.203126 -3.43164,30.621096 -0.17828,1.9275 -0.3152,3.53372 -0.42773,5.04101 -0.0721,0.0376 -0.10572,0.0522 -0.18164,0.0918 -2.90401,1.51513 -8.71302,4.54505 -11.72266,7.19727 -3.00964,2.65221 -3.21931,4.9261 -2.86133,7.66211 0.35799,2.736 1.28449,5.93525 4.35743,7.57617 2.57637,1.37575 6.66852,1.64348 11.33203,1.0039 0.0823,0.69703 0.15982,1.38003 0.2539,2.10157 -0.0909,0.5016 -0.16644,0.85873 -0.26562,1.42773 -1.13095,6.48828 -2.85692,17.49954 -6.63672,26.54688 -3.7798,9.04733 -9.61267,16.13005 -13.92773,19.93945 -4.31507,3.8094 -7.11264,4.34443 -9.64258,1.63672 -2.52995,-2.70771 -4.79216,-8.65939 -5.95313,-17.32032 -0.0391,-0.2917 -0.0669,-0.60863 -0.10351,-0.90624 3.64731,-4.6522 8.65105,-11.3198 12.33593,-17.9336 4.64283,-8.33315 7.08153,-16.42745 6.45704,-22.70703 -0.6245,-6.27958 -4.31473,-10.74434 -9.04688,-12.94727 -4.73215,-2.20292 -10.50466,-2.14264 -15.41602,2.58985 -4.91135,4.73248 -8.95996,14.13621 -11.40039,23.89844 -1.53762,6.15082 -2.43396,12.4433 -2.62109,18.6914 -1.10136,-0.20097 -2.2363,-0.40316 -3.45898,-0.67383 -3.18271,-0.70456 -6.85377,-1.86212 -10.53516,-5.89257 -3.68139,-4.03046 -7.37096,-10.93486 -9.87109,-14.06055 -2.50013,-3.1257 -3.81095,-2.4703 -5.26953,3.21484 -1.45861,5.68514 -3.06508,16.39878 -4.52344,25 -1.45836,8.60123 -2.76801,15.08949 -4.01758,17.35156 -1.24957,2.2621 -2.44039,0.29763 -5.11914,-6.36914 -2.67875,-6.66676 -6.84416,-18.03492 -10.71289,-24.01757 -3.86874,-5.98266 -7.44051,-6.57791 -10.83399,-5.08985 -3.39347,1.48807 -6.60854,5.05856 -10.03125,15.0293 -3.4227,9.97074 -7.05223,26.3393 -10.20703,36.63672 -3.15479,10.29742 -5.83307,14.52366 -8.54101,17.02344 -2.70794,2.49978 -5.44639,3.27476 -8.00586,2.02539 -2.55947,-1.24938 -4.94142,-4.52398 -6.66797,-10.98243 -1.44811,-5.41687 -2.44471,-13.32333 -3.58594,-25.02929 -0.78329,1.04175 8.90703,-12.95276 13.55664,-22.23242 7.11313,-14.19634 13.77871,-32.4106 18.1836,-51.13086 4.40488,-18.72026 6.54891,-37.945265 5.65625,-56.695316 C 732.6796,53.871052 728.75005,35.595949 724.22656,23.720703 719.70307,11.845457 714.58419,6.370986 708.45312,4.1679688 706.92038,3.6172144 705.32516,3.2700807 703.69336,3.2890625 Z M 700.2793,26.857422 c 0.54324,0.02574 1.09266,0.279346 1.65039,0.710937 2.23086,1.726364 4.58783,6.272811 6.81836,19.615235 2.23049,13.34242 4.33528,35.481939 2.14648,58.167966 -2.1888,22.68603 -8.66937,45.91869 -11.91015,57.53516 l -3.24219,11.61719 -0.88477,-4.12696 c -0.88422,-4.12624 -2.65075,-12.37012 -3.70312,-30.00586 -1.05241,-17.63574 -1.38858,-44.657719 -0.54688,-64.945309 0.84174,-20.287592 2.86119,-33.83981 4.92383,-41.164062 1.54701,-5.493189 3.11832,-7.481504 4.74805,-7.404297 z M 835.00781,144.0918 c 0.80357,0.0596 1.43587,0.63978 1.74805,1.68164 0.62436,2.08371 -0.0296,6.01286 -1.13086,9.82226 -1.10124,3.80941 -2.64886,7.50009 -5,11.13086 -1.26285,1.95016 -2.75614,3.88912 -4.1875,5.99414 -0.002,-4.60863 0.22894,-9.09695 0.70508,-12.80859 1.01179,-7.88724 3.09512,-12.29348 5.08984,-14.37695 0.99736,-1.04174 1.97182,-1.50291 2.77539,-1.44336 z m -187.35937,46.72461 c 0.65876,0.0354 1.23603,0.30982 1.66992,0.6914 1.38843,1.22108 1.30389,3.53748 0.41992,6.63086 -0.88397,3.09339 -2.5664,6.96494 -4.60742,9.38477 -1.69684,2.01177 -3.64996,3.01641 -5.7207,3.91601 0.6619,-6.63806 1.88998,-12.48746 3.38476,-15.97461 1.563,-3.64628 3.40423,-4.72644 4.85352,-4.64843 z"
       transform="matrix(0.26458333,0,0,0.26458333,154.59225,7.2382407)" />
    <path
       id="path1014"
       style="fill:#f4da44;stroke:none;stroke-width:0.999999px;stroke-linecap:butt;stroke-linejoin:miter;stroke-opacity:1;fill-opacity:1"
       d="m 384.79297,86.097656 c -0.60167,0.01439 -1.22763,0.07053 -1.875,0.152344 -5.17895,0.654533 -11.72756,2.915913 -19.88281,13.392578 -8.15526,10.476662 -17.91595,29.167472 -24.04688,50.417972 -6.13093,21.25049 -8.63078,45.0588 -8.1543,61.90429 0.41466,14.65984 3.05594,23.9749 5.31055,32.20508 -4.60226,-0.7961 -11.67183,-0.56827 -17.27539,1.48438 -6.01244,2.20242 -10.29697,6.48917 -13.02539,10.67773 -2.72842,4.18856 -3.90028,8.2788 -5.58008,14.1543 -1.6798,5.87549 -3.86851,13.53638 -4.12695,23.00781 -0.0878,3.21702 0.065,6.66225 0.36914,10.10742 -0.38018,0.51814 -0.72646,0.98619 -1.14844,1.5625 -3.21434,4.38994 -7.6792,10.46029 -13.52734,16.07032 -5.8481,5.61001 -13.07989,10.75877 -18.8086,12.61914 -5.7287,1.86036 -9.95439,0.43326 -13.34765,-3.94141 -1.17455,-1.51426 -2.24544,-3.38946 -3.16406,-5.54688 3.04593,-4.99814 8.22876,-13.5641 12.50781,-21.59765 4.61314,-8.6607 8.0659,-16.51723 9.58398,-23.55469 1.51805,-7.03746 1.10152,-13.26013 -0.17773,-17.79883 -1.27937,-4.53869 -3.42276,-7.3952 -5.9375,-9.13672 -1.57174,-1.08845 -3.2891,-1.73982 -5.2461,-1.81445 -1.1742,-0.0448 -2.43535,0.11781 -3.80273,0.51953 -3.6463,1.07125 -8.05048,3.83804 -12.11328,9.55274 -4.06277,5.71469 -7.78289,14.37664 -9.80664,22.18945 -2.02371,7.8128 -2.35174,14.7763 -2.58985,22.96094 -0.22748,7.81955 -0.36615,16.7267 0.14063,23.42578 -1.57813,2.60244 -4.35044,5.82571 -8.39844,9.49023 -4.24101,3.83922 -9.86629,8.15356 -15.07422,9.93946 -5.20788,1.78589 -10.00015,1.04264 -14.3457,-3.09375 -4.34555,-4.13641 -8.25641,-11.69024 -9.68359,-20.17383 -1.42723,-8.4836 -0.39246,-17.94326 0.73437,-29.11328 1.12687,-11.17002 2.34736,-24.04836 2.43164,-34.78125 0.0843,-10.7329 -0.96846,-19.31911 -2.9043,-25.7168 -1.3173,-4.35365 -3.04709,-7.6811 -4.88476,-10.47852 4.54693,-5.1244 8.44373,-10.70657 11.20898,-15.73047 3.01935,-5.48553 4.66025,-10.24233 5.41797,-15.94531 0.75776,-5.70298 0.63158,-12.35341 -1.2832,-19.36133 -1.91478,-7.00791 -5.61884,-14.3721 -10.73242,-20.9414 -5.11359,-6.56931 -11.63653,-12.34276 -19.4668,-16.61328 -7.83027,-4.27052 -16.96677,-7.03705 -26.58008,-7.90039 -2.40333,-0.21584 -4.83786,-0.31242 -7.27929,-0.28711 -7.3243,0.0759 -14.72347,1.24862 -21.6211,3.60351 -9.196834,3.13985 -17.500298,8.37862 -24.152342,14.19727 -6.652044,5.81865 -11.65243,12.21733 -15.640625,19.85156 -3.988195,7.63423 -6.963869,16.50353 -7.603515,24.31641 -0.639686,7.81287 1.056446,14.56841 3.363281,20 2.306797,5.43159 5.22396,9.53951 10.253906,12.03906 5.029946,2.49956 12.171887,3.39085 17.632813,2.57227 5.460924,-0.8186 9.26119,-3.3616 11.453122,-6.49415 2.19194,-3.13254 2.81773,-6.88202 2.46094,-9.7539 -0.35667,-2.87189 -1.69498,-4.86559 -4.730469,-6.94922 -3.035527,-2.08363 -7.767582,-4.25675 -11.05664,-7.7832 -3.289096,-3.52647 -5.136191,-8.40777 -4.273438,-13.52735 0.862791,-5.11958 4.43499,-10.47705 10.953125,-15.80468 6.518132,-5.32765 15.982502,-10.62413 24.197262,-13.1836 8.21473,-2.55947 15.17791,-2.38151 22.29102,-0.19336 7.11315,2.18816 14.37525,6.38613 19.68945,11.59961 5.31425,5.21348 8.66288,11.4069 10.27149,16.22266 1.60871,4.81576 1.44047,8.18352 0.17773,14.16015 -1.22532,5.79936 -3.48991,14.03918 -6.67969,20.46485 -0.23642,-0.10792 -0.46025,-0.22481 -0.70703,-0.32617 -4.35624,-1.78928 -10.37462,-2.54715 -16.64648,-0.88477 -5.23371,1.38722 -10.63494,4.46483 -14.12891,8.69727 0.43853,-7.54343 0.72812,-14.27848 0.74414,-19.70118 0.0423,-14.31039 -1.80903,-19.53046 -4.25,-22.14062 -2.44093,-2.61016 -5.47263,-2.60948 -7.74609,0.21094 -2.27342,2.8204 -3.78727,8.45944 -5.84961,24.95898 -2.06238,16.49954 -4.6716,43.8584 -8.96484,75.3418 -4.29321,31.48339 -10.270962,67.09041 -16.41602,87.67187 -6.145058,20.5815 -12.457532,26.13639 -19.107422,29.67188 -6.649927,3.53552 -13.637913,5.05115 -19.488281,3.41015 -5.850369,-1.64095 -10.56389,-6.44026 -12.248047,-11.91211 -1.684157,-5.47184 -0.336509,-11.61628 2.441406,-16.45703 2.778104,-4.84078 6.987504,-8.37635 9.007813,-11.40625 2.020271,-3.02989 1.851994,-5.55535 1.003906,-8.15234 -0.84805,-2.59698 -2.376757,-5.26546 -5.070313,-6.78125 -2.693592,-1.5158 -6.554142,-1.87728 -11.935546,0.76172 -5.381405,2.639 -12.282484,8.27942 -16.744141,16.82422 -4.461657,8.54475 -6.482539,19.99272 -4.966797,29.75781 1.515704,9.76509 6.565812,17.84611 14.689453,23.73828 8.123641,5.89221 19.31896,9.59586 30.09375,9.67969 10.774753,0.0839 21.128528,-3.45176 30.261719,-10.39649 9.133228,-6.94473 17.0465,-17.2988 23.10742,-31.69336 6.06093,-14.39455 10.26997,-32.82913 13.00586,-53.83203 2.73589,-21.00289 3.99824,-44.5723 5.59766,-68.05859 0.47755,-7.0127 0.97295,-13.92383 1.45117,-20.68164 2.58647,2.85094 6.6873,3.5492 11.0293,3.25586 4.98739,-0.33693 10.29201,-1.9794 15.84765,-5.19922 0.96948,-0.56187 1.94606,-1.18655 2.92578,-1.83984 1.13996,3.16025 2.08811,6.87921 2.50196,10.99609 0.75734,7.53395 -0.25179,16.32994 -1.17774,27.92578 -0.92583,11.59583 -1.76791,25.99154 -0.65234,39.43945 1.11553,13.44792 4.18701,25.94725 8.20703,33.98633 4.02002,8.03909 8.98634,11.61826 15.06836,13.80664 6.08202,2.18824 13.27994,2.98597 20.91601,-0.25781 7.63612,-3.24378 15.71247,-10.53011 20.85157,-15.49805 2.41142,-2.33111 4.13517,-4.11875 5.48437,-5.61132 0.46596,0.58564 0.974,1.15709 1.54492,1.71679 3.82485,3.74974 10.13464,7.08159 15.71485,8.19727 5.58017,1.11564 10.43159,0.0148 16.32422,-3.45313 5.89258,-3.46728 12.82732,-9.2988 18.94336,-16.05469 5.00424,-5.52781 9.43577,-11.66117 12.49609,-17.04687 0.41715,2.01482 0.86702,3.92444 1.3457,5.62305 2.1469,7.61828 4.75739,11.49126 10.35547,13.00586 5.59809,1.5146 14.18361,0.67199 21.54883,-5.11524 3.015,-2.36904 5.82162,-5.5793 8.44922,-9.48437 0.51986,1.23073 1.19966,2.40312 2.09375,3.48828 4.23063,5.13476 12.98617,8.41585 20.91992,9.23633 7.93375,0.82047 15.04713,-0.81965 20.37109,-4.79688 5.32397,-3.97723 8.85832,-10.29024 11.61524,-17.63476 2.75691,-7.34452 4.73459,-15.72122 4.39844,-21.44532 -0.33616,-5.7241 -2.98708,-8.79631 -5.55469,-10.01758 -2.56761,-1.22126 -5.04963,-0.59076 -7.44922,3.21876 -2.39959,3.80951 -4.71568,10.79704 -7.74609,16.5 -3.03042,5.70295 -6.77641,10.12151 -11.00586,12.01562 -4.22946,1.89411 -8.94284,1.26304 -12.58399,-2.48242 -2.05181,-2.1106 -3.74836,-5.20963 -5.04687,-8.29688 0.095,-0.24866 0.19461,-0.47973 0.28906,-0.73047 5.24021,-13.91063 9.57597,-31.00011 16.0293,-55.96875 6.45332,-24.96863 15.02364,-57.81574 20.26172,-85.13281 5.23807,-27.31706 7.14319,-49.10134 6.1914,-60.470701 -0.83282,-9.948189 -3.8528,-11.921071 -8.06445,-11.820313 z m -15.36133,47.826174 c 1.1996,-0.0114 1.75655,2.16757 1.25391,7.35742 -0.80423,8.30376 -4.3159,24.31524 -8.09571,40.50586 -3.7798,16.19062 -7.82421,32.54541 -9.84961,40.73633 -2.02539,8.19091 -2.02556,8.19083 -2.04882,8.34179 -0.0233,0.15096 -0.0701,0.45122 -0.84375,-2.16796 -0.77367,-2.61919 -2.27465,-8.15846 -1.38868,-20.74805 0.88598,-12.58959 4.16053,-32.23407 7.76172,-46.10352 3.60119,-13.86944 7.52987,-21.96474 10.44727,-25.71484 1.09402,-1.40629 2.04391,-2.20022 2.76367,-2.20703 z M 149.7832,225.50586 c 0.98392,-0.005 1.99372,0.16972 3.00391,0.49609 0.72615,0.23461 1.45162,0.55306 2.18945,1.03321 -0.44386,0.38523 -0.88126,0.75148 -1.30664,1.09179 -3.57743,2.86204 -6.39779,4.16664 -8.22851,4.23047 -1.83077,0.0638 -2.67333,-1.11632 -2.29493,-2.50586 0.37841,-1.38954 1.97867,-2.98891 3.78907,-3.76758 0.90519,-0.38933 1.86374,-0.5729 2.84765,-0.57812 z M 330.75,261.56055 c 1.7261,-0.0378 3.27737,0.38851 4.37109,0.70117 2.49994,0.71466 2.61808,0.83409 3.57032,2.32226 0.36831,0.57561 0.86252,1.35118 1.39062,1.96094 0.094,2.96621 0.0172,6.02673 -0.32031,9.28906 -1.07164,10.35704 -4.52404,22.61919 -8.63086,29.64258 -4.10682,7.0234 -8.86932,8.80959 -11.8457,5.83399 -2.97639,-2.97561 -4.16615,-10.71414 -3.27344,-20.23828 0.89271,-9.52415 3.86952,-20.83381 7.79883,-25.83399 2.21023,-2.8126 4.72017,-3.62912 6.93945,-3.67773 z m -73.41211,6.95117 c 1.11636,0.0602 1.88872,0.95387 1.91797,3.34961 0.0302,2.39574 -0.68491,6.29465 -2.4707,11.44336 -1.78575,5.1487 -4.64202,11.54771 -6.42774,15.3125 -1.78567,3.76479 -2.50049,4.89494 -4.18945,7.24609 -0.79228,1.10288 -1.81004,2.49134 -2.80469,3.85938 -0.004,-0.0866 -0.0119,-0.17094 -0.0156,-0.25782 -0.37229,-8.75031 1.44492,-18.92835 3.46875,-25.74414 2.02382,-6.81578 4.2541,-10.26754 6.09961,-12.38086 1.8455,-2.11332 3.30551,-2.88829 4.42187,-2.82812 z"
       transform="matrix(0.26458333,0,0,0.26458333,154.59225,7.2382407)" />
  </g>
</svg>
